<?xml version="1.0" encoding="utf-8"?>
<!-- Generator: Adobe Illustrator 15.1.0, SVG Export Plug-In . SVG Version: 6.00 Build 0)  -->
<!DOCTYPE svg PUBLIC "-//W3C//DTD SVG 1.1//EN" "http://www.w3.org/Graphics/SVG/1.1/DTD/svg11.dtd">
<svg version="1.1" id="Ebene_1" xmlns="http://www.w3.org/2000/svg" xmlns:xlink="http://www.w3.org/1999/xlink" x="0px" y="0px"
	 width="619.301px" height="312.699px" viewBox="0 0 619.301 312.699" enable-background="new 0 0 619.301 312.699"
	 xml:space="preserve">
<g>
	<g>
		<polyline fill="none" stroke="#878787" stroke-width="5.2" points="610.772,7.896 484.885,304.389 441.527,180.562 
			338.283,196.768 170.086,54.158 		"/>
	</g>
</g>
<line fill="none" stroke="#878787" stroke-width="5.2" x1="173.899" y1="51.371" x2="11.043" y2="165.77"/>
<g>
	<path fill="#FFFFFF" d="M4.572,163.051c2.678-2.748,7.077-2.806,9.826-0.128c2.748,2.677,2.806,7.076,0.128,9.825
		c-2.678,2.748-7.077,2.807-9.826,0.129S1.894,165.8,4.572,163.051"/>
	<circle fill="none" stroke="#3C3C3B" stroke-width="5.2" cx="9.549" cy="167.899" r="6.948"/>
	<path fill="#FFFFFF" d="M604.774,4.7c2.678-2.749,7.077-2.806,9.826-0.128c2.749,2.678,2.806,7.077,0.128,9.825
		c-2.678,2.749-7.076,2.807-9.825,0.129C602.154,11.848,602.097,7.449,604.774,4.7"/>
	<circle fill="none" stroke="#3C3C3B" stroke-width="5.2" cx="609.751" cy="9.548" r="6.948"/>
	<path fill="#FFFFFF" d="M480.674,298.303c2.679-2.748,7.077-2.807,9.825-0.129s2.808,7.077,0.129,9.826s-7.076,2.807-9.824,0.128
		C478.054,305.45,477.995,301.053,480.674,298.303"/>
	<circle fill="none" stroke="#3C3C3B" stroke-width="5.2" cx="485.65" cy="303.151" r="6.948"/>
	<path fill="#FFFFFF" d="M436.559,176.311c2.678-2.748,7.076-2.806,9.824-0.127c2.749,2.678,2.808,7.076,0.129,9.824
		c-2.678,2.749-7.076,2.807-9.825,0.129S433.881,179.061,436.559,176.311"/>
	<circle fill="none" stroke="#3C3C3B" stroke-width="5.2" cx="441.535" cy="181.159" r="6.948"/>
	<path fill="#FFFFFF" d="M333.814,190.945c2.679-2.748,7.077-2.805,9.825-0.127c2.749,2.677,2.808,7.076,0.129,9.824
		c-2.678,2.75-7.077,2.807-9.825,0.129C331.195,198.096,331.137,193.695,333.814,190.945"/>
	<circle fill="none" stroke="#3C3C3B" stroke-width="5.2" cx="338.792" cy="195.795" r="6.948"/>
	<path fill="#FFFFFF" d="M164.589,49.392c2.679-2.749,7.076-2.806,9.825-0.128c2.748,2.677,2.808,7.076,0.128,9.825
		c-2.678,2.748-7.076,2.806-9.825,0.129C161.968,56.54,161.91,52.141,164.589,49.392"/>
	<circle fill="none" stroke="#3C3C3B" stroke-width="5.2" cx="169.565" cy="54.241" r="6.948"/>
</g>
</svg>
