<?xml version="1.0" encoding="utf-8"?>
<!-- Generator: Adobe Illustrator 15.1.0, SVG Export Plug-In . SVG Version: 6.00 Build 0)  -->
<!DOCTYPE svg PUBLIC "-//W3C//DTD SVG 1.1//EN" "http://www.w3.org/Graphics/SVG/1.1/DTD/svg11.dtd">
<svg version="1.1" id="Ebene_1" xmlns="http://www.w3.org/2000/svg" xmlns:xlink="http://www.w3.org/1999/xlink" x="0px" y="0px"
	 width="185.397px" height="384.984px" viewBox="0 0 185.397 384.984" enable-background="new 0 0 185.397 384.984"
	 xml:space="preserve">
<g>
	<polyline fill="none" stroke="#878787" stroke-width="5.2" points="7.614,375.263 109.872,327.606 102.175,255.026 
		176.933,181.997 168.402,9.916 	"/>
	<path fill="#FFFFFF" d="M8.642,368.545c-3.805,0.5-6.483,3.991-5.982,7.796s3.991,6.482,7.796,5.981
		c3.804-0.501,6.483-3.991,5.982-7.796C15.937,370.723,12.446,368.044,8.642,368.545"/>
	<circle fill="none" stroke="#3C3C3B" stroke-width="5.2" cx="9.549" cy="375.434" r="6.948"/>
	<path fill="#FFFFFF" d="M107.515,320.591c-3.805,0.5-6.483,3.991-5.982,7.795c0.501,3.805,3.991,6.483,7.796,5.982
		c3.804-0.501,6.483-3.991,5.982-7.796C114.81,322.768,111.319,320.09,107.515,320.591"/>
	<circle fill="none" stroke="#3C3C3B" stroke-width="5.2" cx="108.422" cy="327.48" r="6.948"/>
	<path fill="#FFFFFF" d="M101.741,248.501c-3.805,0.5-6.483,3.99-5.982,7.795s3.991,6.482,7.796,5.981
		c3.804-0.501,6.483-3.991,5.982-7.796C109.036,250.678,105.545,248,101.741,248.501"/>
	<circle fill="none" stroke="#3C3C3B" stroke-width="5.2" cx="102.648" cy="255.39" r="6.948"/>
	<path fill="#FFFFFF" d="M174.941,174.935c-3.805,0.5-6.483,3.991-5.982,7.795c0.501,3.805,3.991,6.483,7.797,5.982
		c3.804-0.501,6.482-3.991,5.981-7.796C182.236,177.112,178.745,174.434,174.941,174.935"/>
	<circle fill="none" stroke="#3C3C3B" stroke-width="5.2" cx="175.849" cy="181.823" r="6.948"/>
	<path fill="#FFFFFF" d="M167.872,2.661c-3.805,0.5-6.483,3.991-5.982,7.795c0.501,3.805,3.991,6.483,7.797,5.982
		c3.804-0.501,6.482-3.991,5.981-7.796C175.167,4.838,171.676,2.16,167.872,2.661"/>
	<circle fill="none" stroke="#3C3C3B" stroke-width="5.2" cx="168.779" cy="9.549" r="6.948"/>
</g>
</svg>
