<?xml version="1.0" encoding="utf-8"?>
<!-- Generator: Adobe Illustrator 15.1.0, SVG Export Plug-In . SVG Version: 6.00 Build 0)  -->
<!DOCTYPE svg PUBLIC "-//W3C//DTD SVG 1.1//EN" "http://www.w3.org/Graphics/SVG/1.1/DTD/svg11.dtd">
<svg version="1.1" id="Ebene_1" xmlns="http://www.w3.org/2000/svg" xmlns:xlink="http://www.w3.org/1999/xlink" x="0px" y="0px"
	 width="288.404px" height="232.37px" viewBox="0 0 288.404 232.37" enable-background="new 0 0 288.404 232.37"
	 xml:space="preserve">
<g>
	<polyline fill="none" stroke="#878787" stroke-width="5.2" points="8.388,200.977 100.788,223.591 161.059,191.461 
		265.321,198.605 279.759,14.785 	"/>
	<path fill="#FFFFFF" d="M14.084,197.271c-2.907-2.505-7.294-2.179-9.799,0.729c-2.505,2.906-2.179,7.293,0.728,9.798
		c2.907,2.506,7.294,2.18,9.8-0.729C17.317,204.162,16.991,199.775,14.084,197.271"/>
	<circle fill="none" stroke="#3C3C3B" stroke-width="5.2" cx="9.549" cy="202.534" r="6.948"/>
	<path fill="#FFFFFF" d="M104.747,217.558c-2.907-2.505-7.294-2.179-9.799,0.729c-2.505,2.906-2.18,7.294,0.728,9.799
		c2.906,2.506,7.294,2.179,9.799-0.729S107.654,220.062,104.747,217.558"/>
	<circle fill="none" stroke="#3C3C3B" stroke-width="5.2" cx="100.212" cy="222.821" r="6.948"/>
	<path fill="#FFFFFF" d="M165.638,186.792c-2.907-2.505-7.294-2.179-9.799,0.729c-2.505,2.906-2.179,7.293,0.728,9.798
		c2.907,2.506,7.294,2.18,9.8-0.729C168.871,193.684,168.545,189.297,165.638,186.792"/>
	<circle fill="none" stroke="#3C3C3B" stroke-width="5.2" cx="161.102" cy="192.056" r="6.948"/>
	<path fill="#FFFFFF" d="M269.265,192.417c-2.906-2.506-7.294-2.18-9.799,0.729c-2.505,2.907-2.179,7.293,0.729,9.798
		c2.907,2.506,7.294,2.18,9.8-0.728C272.498,199.309,272.172,194.922,269.265,192.417"/>
	<circle fill="none" stroke="#3C3C3B" stroke-width="5.2" cx="264.729" cy="197.68" r="6.948"/>
	<path fill="#FFFFFF" d="M283.391,4.285c-2.907-2.505-7.294-2.179-9.799,0.728c-2.505,2.907-2.18,7.295,0.728,9.8
		c2.907,2.505,7.294,2.178,9.799-0.729C286.624,11.177,286.298,6.79,283.391,4.285"/>
	<circle fill="none" stroke="#3C3C3B" stroke-width="5.2" cx="278.855" cy="9.549" r="6.948"/>
</g>
</svg>
