<?xml version="1.0" encoding="utf-8"?>
<!-- Generator: Adobe Illustrator 15.1.0, SVG Export Plug-In . SVG Version: 6.00 Build 0)  -->
<!DOCTYPE svg PUBLIC "-//W3C//DTD SVG 1.1//EN" "http://www.w3.org/Graphics/SVG/1.1/DTD/svg11.dtd">
<svg version="1.1" id="Ebene_1" xmlns="http://www.w3.org/2000/svg" xmlns:xlink="http://www.w3.org/1999/xlink" x="0px" y="0px"
	 width="235.088px" height="453.264px" viewBox="0 0 235.088 453.264" enable-background="new 0 0 235.088 453.264"
	 xml:space="preserve">
<g>
	<g>
		<g>
			<defs>
				<rect id="SVGID_1_" y="0" width="235.088" height="453.264"/>
			</defs>
			<clipPath id="SVGID_2_">
				<use xlink:href="#SVGID_1_"  overflow="visible"/>
			</clipPath>
			<polyline clip-path="url(#SVGID_2_)" fill="none" stroke="#79797A" stroke-width="5.2" points="146.228,8.698 8.241,104.921 
				127.101,160.465 100.633,261.564 225.673,443.203 			"/>
		</g>
	</g>
	<g>
		<g>
			<defs>
				<rect id="SVGID_3_" y="0" width="235.088" height="453.264"/>
			</defs>
			<clipPath id="SVGID_4_">
				<use xlink:href="#SVGID_3_"  overflow="visible"/>
			</clipPath>
			<path clip-path="url(#SVGID_4_)" fill="#FFFFFF" d="M148.806,14.987c3.004-2.389,3.502-6.76,1.113-9.763
				c-2.391-3.004-6.761-3.501-9.766-1.112c-3.002,2.39-3.5,6.761-1.11,9.765C141.433,16.878,145.804,17.376,148.806,14.987"/>
		</g>
	</g>
	<g>
		<g>
			<defs>
				<rect id="SVGID_5_" y="0" width="235.088" height="453.264"/>
			</defs>
			<clipPath id="SVGID_6_">
				<use xlink:href="#SVGID_5_"  overflow="visible"/>
			</clipPath>
			<circle clip-path="url(#SVGID_6_)" fill="none" stroke="#222223" stroke-width="5.2" cx="144.479" cy="9.549" r="6.948"/>
		</g>
	</g>
	<g>
		<g>
			<defs>
				<rect id="SVGID_7_" y="0" width="235.088" height="453.264"/>
			</defs>
			<clipPath id="SVGID_8_">
				<use xlink:href="#SVGID_7_"  overflow="visible"/>
			</clipPath>
			<path clip-path="url(#SVGID_8_)" fill="#FFFFFF" d="M13.875,109.72c3.002-2.389,3.5-6.76,1.111-9.763
				c-2.389-3.004-6.76-3.502-9.763-1.113s-3.501,6.76-1.113,9.763C6.5,111.611,10.871,112.109,13.875,109.72"/>
		</g>
	</g>
	<g>
		<g>
			<defs>
				<rect id="SVGID_9_" y="0" width="235.088" height="453.264"/>
			</defs>
			<clipPath id="SVGID_10_">
				<use xlink:href="#SVGID_9_"  overflow="visible"/>
			</clipPath>
			<circle clip-path="url(#SVGID_10_)" fill="none" stroke="#222223" stroke-width="5.2" cx="9.549" cy="104.282" r="6.949"/>
		</g>
	</g>
	<g>
		<g>
			<defs>
				<rect id="SVGID_11_" y="0" width="235.088" height="453.264"/>
			</defs>
			<clipPath id="SVGID_12_">
				<use xlink:href="#SVGID_11_"  overflow="visible"/>
			</clipPath>
			<path clip-path="url(#SVGID_12_)" fill="#FFFFFF" d="M130.832,165.835c3.003-2.392,3.501-6.76,1.112-9.766
				c-2.389-3.004-6.76-3.501-9.764-1.109c-3.005,2.388-3.5,6.759-1.113,9.763C123.458,167.726,127.829,168.224,130.832,165.835"/>
		</g>
	</g>
	<g>
		<g>
			<defs>
				<rect id="SVGID_13_" y="0" width="235.088" height="453.264"/>
			</defs>
			<clipPath id="SVGID_14_">
				<use xlink:href="#SVGID_13_"  overflow="visible"/>
			</clipPath>
			<circle clip-path="url(#SVGID_14_)" fill="none" stroke="#222223" stroke-width="5.2" cx="126.507" cy="160.398" r="6.948"/>
		</g>
	</g>
	<g>
		<g>
			<defs>
				<rect id="SVGID_15_" y="0" width="235.088" height="453.264"/>
			</defs>
			<clipPath id="SVGID_16_">
				<use xlink:href="#SVGID_15_"  overflow="visible"/>
			</clipPath>
			<path clip-path="url(#SVGID_16_)" fill="#FFFFFF" d="M105.977,266.596c3.003-2.391,3.501-6.762,1.113-9.764
				c-2.389-3.004-6.76-3.502-9.764-1.111c-3.004,2.387-3.5,6.758-1.113,9.762C98.603,268.486,102.974,268.984,105.977,266.596"/>
		</g>
	</g>
	<g>
		<g>
			<defs>
				<rect id="SVGID_17_" y="0" width="235.088" height="453.264"/>
			</defs>
			<clipPath id="SVGID_18_">
				<use xlink:href="#SVGID_17_"  overflow="visible"/>
			</clipPath>
			<circle clip-path="url(#SVGID_18_)" fill="none" stroke="#222223" stroke-width="5.2" cx="101.651" cy="261.158" r="6.948"/>
		</g>
	</g>
	<g>
		<g>
			<path fill="#FFFFFF" d="M229.864,449.152c3.003-2.389,3.501-6.76,1.111-9.764c-2.39-3.002-6.76-3.5-9.765-1.111
				c-3.003,2.389-3.501,6.76-1.11,9.762C222.49,451.043,226.86,451.539,229.864,449.152"/>
		</g>
	</g>
	<g>
		<circle fill="none" stroke="#222223" stroke-width="5.2" cx="225.539" cy="443.715" r="6.948"/>
	</g>
</g>
</svg>
