<?xml version="1.0" encoding="utf-8"?>
<!-- Generator: Adobe Illustrator 15.1.0, SVG Export Plug-In . SVG Version: 6.00 Build 0)  -->
<!DOCTYPE svg PUBLIC "-//W3C//DTD SVG 1.1//EN" "http://www.w3.org/Graphics/SVG/1.1/DTD/svg11.dtd">
<svg version="1.1" id="Ebene_1" xmlns="http://www.w3.org/2000/svg" xmlns:xlink="http://www.w3.org/1999/xlink" x="0px" y="0px"
	 width="349.297px" height="346.697px" viewBox="0 0 349.297 346.697" enable-background="new 0 0 349.297 346.697"
	 xml:space="preserve">
<g>
	<polyline fill="none" stroke="#878787" stroke-width="5.2" points="52.489,8.381 8.386,112.221 62.672,161.008 55.981,265.302 
		339.302,336.701 	"/>
	<path fill="#FFFFFF" d="M56.221,14.062c2.492-2.918,2.147-7.304-0.771-9.796c-2.918-2.493-7.304-2.147-9.796,0.771
		c-2.493,2.918-2.147,7.303,0.771,9.796C49.343,17.325,53.729,16.979,56.221,14.062"/>
	<circle fill="none" stroke="#3C3C3B" stroke-width="5.2" cx="50.937" cy="9.549" r="6.948"/>
	<path fill="#FFFFFF" d="M14.832,115.858c2.492-2.918,2.147-7.304-0.771-9.796c-2.918-2.493-7.304-2.147-9.796,0.771
		c-2.493,2.918-2.147,7.303,0.771,9.796C7.954,119.121,12.34,118.776,14.832,115.858"/>
	<circle fill="none" stroke="#3C3C3B" stroke-width="5.2" cx="9.549" cy="111.345" r="6.948"/>
	<path fill="#FFFFFF" d="M67.36,165.568c2.492-2.918,2.147-7.304-0.771-9.796c-2.918-2.493-7.304-2.147-9.796,0.771
		c-2.493,2.918-2.147,7.303,0.771,9.796C60.482,168.831,64.868,168.486,67.36,165.568"/>
	<circle fill="none" stroke="#3C3C3B" stroke-width="5.2" cx="62.077" cy="161.055" r="6.948"/>
	<path fill="#FFFFFF" d="M62.188,269.219c2.492-2.919,2.147-7.305-0.771-9.797s-7.304-2.146-9.796,0.771
		c-2.493,2.918-2.147,7.303,0.771,9.796C55.31,272.482,59.696,272.137,62.188,269.219"/>
	<circle fill="none" stroke="#3C3C3B" stroke-width="5.2" cx="56.905" cy="264.707" r="6.948"/>
	<path fill="#FFFFFF" d="M345.032,341.662c2.492-2.918,2.146-7.305-0.771-9.797s-7.304-2.146-9.796,0.771s-2.146,7.303,0.771,9.796
		C338.154,344.924,342.54,344.58,345.032,341.662"/>
	<circle fill="none" stroke="#3C3C3B" stroke-width="5.2" cx="339.749" cy="337.149" r="6.949"/>
</g>
</svg>
