<?xml version="1.0" encoding="utf-8"?>
<!-- Generator: Adobe Illustrator 15.1.0, SVG Export Plug-In . SVG Version: 6.00 Build 0)  -->
<!DOCTYPE svg PUBLIC "-//W3C//DTD SVG 1.1//EN" "http://www.w3.org/Graphics/SVG/1.1/DTD/svg11.dtd">
<svg version="1.1" id="Ebene_1" xmlns="http://www.w3.org/2000/svg" xmlns:xlink="http://www.w3.org/1999/xlink" x="0px" y="0px"
	 width="121.654px" height="154.666px" viewBox="0 0 121.654 154.666" enable-background="new 0 0 121.654 154.666"
	 xml:space="preserve">
<g>
	<path fill="#FFFFFF" d="M12.632,91.11c1.832-2.664,1.156-6.311-1.509-8.143c-2.665-1.832-6.311-1.156-8.143,1.509
		c-1.832,2.666-1.156,6.312,1.509,8.144C7.155,94.452,10.8,93.775,12.632,91.11"/>
	<circle fill="none" stroke="#878787" stroke-width="3.9" cx="7.806" cy="87.793" r="5.856"/>
	<path fill="#FFFFFF" d="M65.487,82.061c1.832-2.665,1.156-6.311-1.509-8.143s-6.311-1.156-8.143,1.509
		c-1.832,2.666-1.156,6.312,1.509,8.143C60.01,85.401,63.655,84.726,65.487,82.061"/>
	<circle fill="none" stroke="#878787" stroke-width="3.9" cx="60.661" cy="78.744" r="5.856"/>
	<path fill="#FFFFFF" d="M92.146,72.787c1.832-2.665,1.156-6.312-1.509-8.144s-6.311-1.155-8.143,1.509
		c-1.832,2.666-1.156,6.312,1.509,8.144C86.669,76.128,90.314,75.452,92.146,72.787"/>
	<circle fill="none" stroke="#878787" stroke-width="3.9" cx="87.321" cy="69.47" r="5.856"/>
	<path fill="#FFFFFF" d="M66.341,11.123c1.832-2.666,1.156-6.311-1.509-8.143c-2.666-1.832-6.311-1.156-8.143,1.509
		c-1.832,2.665-1.156,6.311,1.509,8.143S64.509,13.788,66.341,11.123"/>
	<circle fill="none" stroke="#878787" stroke-width="3.9" cx="61.515" cy="7.806" r="5.856"/>
	<path fill="#FFFFFF" d="M31.301,48.623c1.832-2.664,1.156-6.311-1.509-8.143s-6.311-1.156-8.143,1.509
		c-1.832,2.666-1.156,6.312,1.509,8.144C25.824,51.965,29.469,51.288,31.301,48.623"/>
	<circle fill="none" stroke="#878787" stroke-width="3.9" cx="26.475" cy="45.306" r="5.856"/>
	<path fill="#FFFFFF" d="M65.042,56.848c1.832-2.665,1.156-6.311-1.509-8.143s-6.311-1.156-8.143,1.509
		c-1.832,2.666-1.156,6.311,1.509,8.143C59.564,60.188,63.209,59.513,65.042,56.848"/>
	<circle fill="none" stroke="#878787" stroke-width="3.9" cx="60.215" cy="53.531" r="5.856"/>
	<path fill="#FFFFFF" d="M118.674,94.297c1.831-2.665,1.155-6.312-1.51-8.144s-6.311-1.156-8.143,1.509
		c-1.832,2.666-1.156,6.312,1.509,8.144C113.196,97.638,116.842,96.961,118.674,94.297"/>
	<circle fill="none" stroke="#878787" stroke-width="3.9" cx="113.847" cy="90.979" r="5.857"/>
	<path fill="#FFFFFF" d="M94.422,114.017c1.832-2.665,1.156-6.311-1.509-8.143s-6.311-1.156-8.143,1.509
		c-1.832,2.666-1.156,6.311,1.509,8.143C88.946,117.357,92.591,116.682,94.422,114.017"/>
	<circle fill="none" stroke="#878787" stroke-width="3.9" cx="89.596" cy="110.7" r="5.856"/>
	<path fill="#FFFFFF" d="M47.887,100.024c1.832-2.665,1.156-6.312-1.509-8.144s-6.311-1.155-8.143,1.51
		c-1.832,2.666-1.156,6.311,1.509,8.143C42.41,103.365,46.055,102.689,47.887,100.024"/>
	<circle fill="none" stroke="#878787" stroke-width="3.9" cx="43.061" cy="96.708" r="5.856"/>
	<path fill="#FFFFFF" d="M50.38,129.235c1.832-2.665,1.156-6.311-1.509-8.143s-6.311-1.156-8.143,1.509
		c-1.832,2.666-1.156,6.312,1.509,8.143C44.903,132.576,48.548,131.9,50.38,129.235"/>
	<circle fill="none" stroke="#878787" stroke-width="3.9" cx="45.554" cy="125.918" r="5.856"/>
	<path fill="#FFFFFF" d="M38.018,150.177c1.832-2.665,1.156-6.312-1.509-8.144s-6.311-1.156-8.143,1.509
		c-1.832,2.666-1.156,6.312,1.509,8.144C32.541,153.518,36.186,152.842,38.018,150.177"/>
	<circle fill="none" stroke="#878787" stroke-width="3.9" cx="33.192" cy="146.859" r="5.856"/>
</g>
</svg>
