<?xml version="1.0" encoding="utf-8"?>
<!-- Generator: Adobe Illustrator 15.1.0, SVG Export Plug-In . SVG Version: 6.00 Build 0)  -->
<!DOCTYPE svg PUBLIC "-//W3C//DTD SVG 1.1//EN" "http://www.w3.org/Graphics/SVG/1.1/DTD/svg11.dtd">
<svg version="1.1" id="Ebene_1" xmlns="http://www.w3.org/2000/svg" xmlns:xlink="http://www.w3.org/1999/xlink" x="0px" y="0px"
	 width="82.349px" height="63.892px" viewBox="0 0 82.349 63.892" enable-background="new 0 0 82.349 63.892" xml:space="preserve">
<g>
	<path fill="#FFFFFF" d="M60.952,28.265c1.832-2.665,1.155-6.311-1.509-8.143c-2.665-1.832-6.311-1.156-8.143,1.509
		c-1.832,2.666-1.156,6.312,1.508,8.143C55.475,31.605,59.12,30.93,60.952,28.265"/>
	<circle fill="none" stroke="#79797A" stroke-width="3.9" cx="56.126" cy="24.948" r="5.856"/>
	<path fill="#FFFFFF" d="M78.783,39.268c1.832-2.665,1.156-6.312-1.509-8.144s-6.312-1.156-8.144,1.509
		c-1.832,2.666-1.155,6.312,1.51,8.144C73.307,42.608,76.951,41.932,78.783,39.268"/>
	<circle fill="none" stroke="#79797A" stroke-width="3.9" cx="73.957" cy="35.95" r="5.856"/>
	<path fill="#FFFFFF" d="M76.564,11.123c1.832-2.665,1.156-6.312-1.509-8.144s-6.311-1.156-8.143,1.509
		c-1.832,2.666-1.156,6.312,1.509,8.144C71.088,14.464,74.732,13.788,76.564,11.123"/>
	<circle fill="none" stroke="#79797A" stroke-width="3.9" cx="71.739" cy="7.806" r="5.856"/>
	<path fill="#FFFFFF" d="M79.368,59.402c1.832-2.665,1.156-6.312-1.509-8.144s-6.311-1.156-8.143,1.509
		c-1.832,2.666-1.156,6.312,1.509,8.144C73.892,62.743,77.537,62.067,79.368,59.402"/>
	<circle fill="none" stroke="#79797A" stroke-width="3.9" cx="74.542" cy="56.085" r="5.856"/>
	<path fill="#FFFFFF" d="M45.34,53.538c1.832-2.665,1.156-6.312-1.51-8.144c-2.664-1.832-6.311-1.156-8.143,1.509
		c-1.832,2.666-1.156,6.312,1.509,8.144C39.862,56.879,43.508,56.202,45.34,53.538"/>
	<circle fill="none" stroke="#79797A" stroke-width="3.9" cx="40.514" cy="50.221" r="5.856"/>
	<path fill="#FFFFFF" d="M12.633,45.731c1.831-2.665,1.155-6.312-1.51-8.144s-6.311-1.155-8.143,1.51
		c-1.832,2.666-1.156,6.311,1.509,8.143C7.155,49.072,10.801,48.396,12.633,45.731"/>
	<circle fill="none" stroke="#79797A" stroke-width="3.9" cx="7.807" cy="42.415" r="5.856"/>
</g>
</svg>
