<?xml version="1.0" encoding="utf-8"?>
<!-- Generator: Adobe Illustrator 15.1.0, SVG Export Plug-In . SVG Version: 6.00 Build 0)  -->
<!DOCTYPE svg PUBLIC "-//W3C//DTD SVG 1.1//EN" "http://www.w3.org/Graphics/SVG/1.1/DTD/svg11.dtd">
<svg version="1.1" id="Ebene_1" xmlns="http://www.w3.org/2000/svg" xmlns:xlink="http://www.w3.org/1999/xlink" x="0px" y="0px"
	 width="129.46px" height="202.813px" viewBox="0 0 129.46 202.813" enable-background="new 0 0 129.46 202.813"
	 xml:space="preserve">
<g>
	<path fill="#FFFFFF" d="M12.632,149.645c1.832-2.665,1.156-6.311-1.509-8.143s-6.311-1.156-8.143,1.509
		c-1.832,2.666-1.156,6.311,1.509,8.143C7.155,152.986,10.8,152.31,12.632,149.645"/>
	<circle fill="none" stroke="#878787" stroke-width="3.9" cx="7.806" cy="146.328" r="5.856"/>
	<path fill="#FFFFFF" d="M65.487,140.595c1.832-2.665,1.156-6.312-1.509-8.144s-6.311-1.155-8.143,1.51
		c-1.832,2.666-1.156,6.311,1.509,8.143C60.01,143.936,63.655,143.26,65.487,140.595"/>
	<circle fill="none" stroke="#878787" stroke-width="3.9" cx="60.661" cy="137.278" r="5.856"/>
	<path fill="#FFFFFF" d="M92.146,131.321c1.832-2.665,1.156-6.311-1.509-8.143s-6.311-1.156-8.143,1.509
		c-1.832,2.666-1.156,6.311,1.509,8.143C86.669,134.662,90.314,133.986,92.146,131.321"/>
	<circle fill="none" stroke="#878787" stroke-width="3.9" cx="87.32" cy="128.004" r="5.856"/>
	<path fill="#FFFFFF" d="M66.341,69.657c1.832-2.666,1.156-6.311-1.509-8.143c-2.666-1.832-6.311-1.156-8.143,1.509
		s-1.156,6.312,1.509,8.143C60.863,72.998,64.509,72.322,66.341,69.657"/>
	<circle fill="none" stroke="#878787" stroke-width="3.9" cx="61.515" cy="66.34" r="5.856"/>
	<path fill="#FFFFFF" d="M126.479,198.324c1.832-2.665,1.156-6.312-1.509-8.144s-6.311-1.156-8.143,1.509
		c-1.832,2.666-1.156,6.312,1.509,8.144C121.003,201.665,124.647,200.989,126.479,198.324"/>
	<circle fill="none" stroke="#878787" stroke-width="3.9" cx="121.654" cy="195.006" r="5.856"/>
	<path fill="#FFFFFF" d="M65.041,115.381c1.832-2.665,1.156-6.311-1.509-8.143c-2.665-1.832-6.311-1.156-8.143,1.509
		c-1.832,2.666-1.156,6.312,1.509,8.143C59.564,118.722,63.209,118.046,65.041,115.381"/>
	<circle fill="none" stroke="#878787" stroke-width="3.9" cx="60.215" cy="112.064" r="5.856"/>
	<path fill="#FFFFFF" d="M118.673,152.831c1.832-2.665,1.156-6.312-1.509-8.144s-6.311-1.155-8.143,1.509
		c-1.832,2.666-1.156,6.312,1.509,8.144C113.196,156.171,116.841,155.496,118.673,152.831"/>
	<circle fill="none" stroke="#878787" stroke-width="3.9" cx="113.847" cy="149.513" r="5.856"/>
	<path fill="#FFFFFF" d="M94.422,172.55c1.832-2.665,1.156-6.311-1.509-8.143s-6.311-1.156-8.143,1.509
		c-1.832,2.666-1.156,6.311,1.509,8.143C88.946,175.891,92.591,175.215,94.422,172.55"/>
	<circle fill="none" stroke="#878787" stroke-width="3.9" cx="89.596" cy="169.233" r="5.856"/>
	<path fill="#FFFFFF" d="M47.887,158.558c1.832-2.665,1.156-6.311-1.509-8.143s-6.311-1.156-8.143,1.509
		c-1.832,2.666-1.156,6.312,1.509,8.144C42.41,161.899,46.055,161.223,47.887,158.558"/>
	<circle fill="none" stroke="#878787" stroke-width="3.9" cx="43.061" cy="155.241" r="5.856"/>
	<path fill="#FFFFFF" d="M100.486,11.124c1.832-2.665,1.156-6.311-1.509-8.143s-6.311-1.156-8.143,1.509
		c-1.832,2.666-1.156,6.311,1.509,8.143C95.009,14.464,98.654,13.788,100.486,11.124"/>
	<circle fill="none" stroke="#878787" stroke-width="3.9" cx="95.66" cy="7.806" r="5.856"/>
	<path fill="#FFFFFF" d="M50.38,187.769c1.832-2.665,1.156-6.311-1.509-8.143s-6.311-1.156-8.143,1.509
		c-1.832,2.666-1.156,6.311,1.509,8.143C44.903,191.11,48.548,190.434,50.38,187.769"/>
	<circle fill="none" stroke="#878787" stroke-width="3.9" cx="45.554" cy="184.452" r="5.856"/>
</g>
</svg>
