<?xml version="1.0" encoding="utf-8"?>
<!-- Generator: Adobe Illustrator 15.1.0, SVG Export Plug-In . SVG Version: 6.00 Build 0)  -->
<!DOCTYPE svg PUBLIC "-//W3C//DTD SVG 1.1//EN" "http://www.w3.org/Graphics/SVG/1.1/DTD/svg11.dtd">
<svg version="1.1" id="Ebene_1" xmlns="http://www.w3.org/2000/svg" xmlns:xlink="http://www.w3.org/1999/xlink" x="0px" y="0px"
	 width="135.213px" height="115.713px" viewBox="0 0 135.213 115.713" enable-background="new 0 0 135.213 115.713"
	 xml:space="preserve">
<g>
	<path fill="#FFFFFF" d="M60.952,28.266c1.832-2.665,1.156-6.311-1.509-8.143c-2.665-1.832-6.311-1.156-8.143,1.509
		c-1.832,2.666-1.156,6.311,1.509,8.143C55.475,31.606,59.12,30.931,60.952,28.266"/>
	<circle fill="none" stroke="#878787" stroke-width="3.9" cx="56.126" cy="24.949" r="5.856"/>
	<path fill="#FFFFFF" d="M78.783,39.268c1.832-2.665,1.156-6.311-1.509-8.143s-6.311-1.156-8.143,1.509
		c-1.832,2.666-1.156,6.311,1.509,8.143C73.307,42.608,76.951,41.933,78.783,39.268"/>
	<circle fill="none" stroke="#878787" stroke-width="3.9" cx="73.957" cy="35.951" r="5.856"/>
	<path fill="#FFFFFF" d="M76.565,11.123c1.832-2.665,1.156-6.311-1.509-8.143c-2.665-1.832-6.311-1.156-8.143,1.509
		c-1.832,2.666-1.156,6.312,1.509,8.143C71.088,14.464,74.733,13.788,76.565,11.123"/>
	<circle fill="none" stroke="#878787" stroke-width="3.9" cx="71.739" cy="7.806" r="5.856"/>
	<path fill="#FFFFFF" d="M79.368,59.402c1.832-2.665,1.156-6.311-1.509-8.143s-6.311-1.156-8.143,1.509
		c-1.832,2.666-1.156,6.312,1.509,8.143C73.892,62.743,77.537,62.067,79.368,59.402"/>
	<circle fill="none" stroke="#878787" stroke-width="3.9" cx="74.542" cy="56.085" r="5.856"/>
	<path fill="#FFFFFF" d="M45.339,53.538c1.832-2.665,1.156-6.311-1.509-8.143s-6.311-1.156-8.143,1.509
		c-1.832,2.666-1.156,6.311,1.509,8.143C39.862,56.879,43.507,56.203,45.339,53.538"/>
	<circle fill="none" stroke="#878787" stroke-width="3.9" cx="40.513" cy="50.221" r="5.856"/>
	<path fill="#FFFFFF" d="M12.632,45.731c1.832-2.665,1.156-6.311-1.509-8.143s-6.311-1.156-8.143,1.509
		c-1.832,2.666-1.156,6.311,1.509,8.143C7.155,49.072,10.8,48.396,12.632,45.731"/>
	<circle fill="none" stroke="#878787" stroke-width="3.9" cx="7.806" cy="42.415" r="5.856"/>
	<path fill="#FFFFFF" d="M120.532,65.724c1.832-2.665,1.156-6.312-1.509-8.144c-2.665-1.832-6.311-1.155-8.143,1.51
		c-1.832,2.666-1.156,6.311,1.509,8.143C115.055,69.064,118.7,68.389,120.532,65.724"/>
	<circle fill="none" stroke="#878787" stroke-width="3.9" cx="115.706" cy="62.407" r="5.856"/>
	<path fill="#FFFFFF" d="M117.932,98.224c1.832-2.665,1.156-6.312-1.509-8.144c-2.665-1.832-6.311-1.155-8.143,1.51
		c-1.832,2.666-1.156,6.311,1.509,8.143C112.455,101.564,116.1,100.889,117.932,98.224"/>
	<circle fill="none" stroke="#878787" stroke-width="3.9" cx="113.106" cy="94.907" r="5.856"/>
	<path fill="#FFFFFF" d="M132.232,111.224c1.832-2.665,1.156-6.312-1.51-8.144c-2.664-1.832-6.311-1.155-8.143,1.51
		c-1.832,2.666-1.156,6.311,1.51,8.143C126.756,114.564,130.4,113.889,132.232,111.224"/>
	<circle fill="none" stroke="#878787" stroke-width="3.9" cx="127.406" cy="107.907" r="5.856"/>
</g>
</svg>
