<?xml version="1.0" encoding="utf-8"?>
<!-- Generator: Adobe Illustrator 15.1.0, SVG Export Plug-In . SVG Version: 6.00 Build 0)  -->
<!DOCTYPE svg PUBLIC "-//W3C//DTD SVG 1.1//EN" "http://www.w3.org/Graphics/SVG/1.1/DTD/svg11.dtd">
<svg version="1.1" id="Ebene_1" xmlns="http://www.w3.org/2000/svg" xmlns:xlink="http://www.w3.org/1999/xlink" x="0px" y="0px"
	 width="130.449px" height="182px" viewBox="0 0 130.449 182" enable-background="new 0 0 130.449 182" xml:space="preserve">
<g>
	<g>
		<defs>
			<rect id="SVGID_1_" width="130.449" height="182"/>
		</defs>
		<clipPath id="SVGID_2_">
			<use xlink:href="#SVGID_1_"  overflow="visible"/>
		</clipPath>
		<path clip-path="url(#SVGID_2_)" fill="#FFFFFF" d="M109.053,28.266c1.832-2.665,1.155-6.311-1.51-8.143
			c-2.664-1.832-6.311-1.156-8.143,1.509c-1.832,2.666-1.156,6.311,1.509,8.143C103.575,31.606,107.221,30.931,109.053,28.266"/>
	</g>
	<g>
		<defs>
			<rect id="SVGID_3_" width="130.449" height="182"/>
		</defs>
		<clipPath id="SVGID_4_">
			<use xlink:href="#SVGID_3_"  overflow="visible"/>
		</clipPath>
		<circle clip-path="url(#SVGID_4_)" fill="none" stroke="#79797A" stroke-width="3.9" cx="104.227" cy="24.949" r="5.856"/>
	</g>
	<g>
		<defs>
			<rect id="SVGID_5_" width="130.449" height="182"/>
		</defs>
		<clipPath id="SVGID_6_">
			<use xlink:href="#SVGID_5_"  overflow="visible"/>
		</clipPath>
		<path clip-path="url(#SVGID_6_)" fill="#FFFFFF" d="M126.883,39.268c1.832-2.665,1.156-6.311-1.508-8.143
			c-2.666-1.832-6.312-1.156-8.145,1.509c-1.832,2.666-1.154,6.311,1.51,8.143C121.406,42.608,125.051,41.933,126.883,39.268"/>
	</g>
	<g>
		<defs>
			<rect id="SVGID_7_" width="130.449" height="182"/>
		</defs>
		<clipPath id="SVGID_8_">
			<use xlink:href="#SVGID_7_"  overflow="visible"/>
		</clipPath>
		<circle clip-path="url(#SVGID_8_)" fill="none" stroke="#79797A" stroke-width="3.9" cx="122.057" cy="35.951" r="5.856"/>
	</g>
	<g>
		<defs>
			<rect id="SVGID_9_" width="130.449" height="182"/>
		</defs>
		<clipPath id="SVGID_10_">
			<use xlink:href="#SVGID_9_"  overflow="visible"/>
		</clipPath>
		<path clip-path="url(#SVGID_10_)" fill="#FFFFFF" d="M64.034,128.123c1.832-2.665,1.156-6.311-1.509-8.143
			s-6.311-1.156-8.143,1.508c-1.832,2.666-1.156,6.312,1.509,8.144C58.558,131.464,62.203,130.788,64.034,128.123"/>
	</g>
	<g>
		<defs>
			<rect id="SVGID_11_" width="130.449" height="182"/>
		</defs>
		<clipPath id="SVGID_12_">
			<use xlink:href="#SVGID_11_"  overflow="visible"/>
		</clipPath>
		<circle clip-path="url(#SVGID_12_)" fill="none" stroke="#79797A" stroke-width="3.9" cx="59.208" cy="124.806" r="5.856"/>
	</g>
	<g>
		<defs>
			<rect id="SVGID_13_" width="130.449" height="182"/>
		</defs>
		<clipPath id="SVGID_14_">
			<use xlink:href="#SVGID_13_"  overflow="visible"/>
		</clipPath>
		<path clip-path="url(#SVGID_14_)" fill="#FFFFFF" d="M124.665,11.124c1.832-2.665,1.155-6.311-1.509-8.143
			c-2.665-1.832-6.311-1.156-8.143,1.509c-1.832,2.666-1.156,6.312,1.508,8.143C119.188,14.464,122.833,13.788,124.665,11.124"/>
	</g>
	<g>
		<defs>
			<rect id="SVGID_15_" width="130.449" height="182"/>
		</defs>
		<clipPath id="SVGID_16_">
			<use xlink:href="#SVGID_15_"  overflow="visible"/>
		</clipPath>
		<circle clip-path="url(#SVGID_16_)" fill="none" stroke="#79797A" stroke-width="3.9" cx="119.839" cy="7.806" r="5.856"/>
	</g>
	<g>
		<defs>
			<rect id="SVGID_17_" width="130.449" height="182"/>
		</defs>
		<clipPath id="SVGID_18_">
			<use xlink:href="#SVGID_17_"  overflow="visible"/>
		</clipPath>
		<path clip-path="url(#SVGID_18_)" fill="#FFFFFF" d="M127.469,59.402c1.832-2.665,1.156-6.311-1.51-8.143
			c-2.664-1.832-6.311-1.156-8.143,1.509c-1.832,2.666-1.156,6.312,1.51,8.143C121.992,62.743,125.637,62.067,127.469,59.402"/>
	</g>
	<g>
		<defs>
			<rect id="SVGID_19_" width="130.449" height="182"/>
		</defs>
		<clipPath id="SVGID_20_">
			<use xlink:href="#SVGID_19_"  overflow="visible"/>
		</clipPath>
		<circle clip-path="url(#SVGID_20_)" fill="none" stroke="#79797A" stroke-width="3.9" cx="122.643" cy="56.085" r="5.856"/>
	</g>
	<g>
		<defs>
			<rect id="SVGID_21_" width="130.449" height="182"/>
		</defs>
		<clipPath id="SVGID_22_">
			<use xlink:href="#SVGID_21_"  overflow="visible"/>
		</clipPath>
		<path clip-path="url(#SVGID_22_)" fill="#FFFFFF" d="M64.619,148.258c1.832-2.664,1.156-6.311-1.509-8.143
			c-2.665-1.832-6.312-1.156-8.144,1.509c-1.832,2.666-1.155,6.312,1.51,8.144C59.143,151.6,62.787,150.923,64.619,148.258"/>
	</g>
	<g>
		<defs>
			<rect id="SVGID_23_" width="130.449" height="182"/>
		</defs>
		<clipPath id="SVGID_24_">
			<use xlink:href="#SVGID_23_"  overflow="visible"/>
		</clipPath>
		<circle clip-path="url(#SVGID_24_)" fill="none" stroke="#79797A" stroke-width="3.9" cx="59.793" cy="144.941" r="5.856"/>
	</g>
	<g>
		<defs>
			<rect id="SVGID_25_" width="130.449" height="182"/>
		</defs>
		<clipPath id="SVGID_26_">
			<use xlink:href="#SVGID_25_"  overflow="visible"/>
		</clipPath>
		<path clip-path="url(#SVGID_26_)" fill="#FFFFFF" d="M93.439,53.538c1.832-2.665,1.156-6.311-1.51-8.143
			c-2.664-1.832-6.312-1.156-8.144,1.509c-1.832,2.666-1.156,6.311,1.51,8.143S91.607,56.203,93.439,53.538"/>
	</g>
	<g>
		<defs>
			<rect id="SVGID_27_" width="130.449" height="182"/>
		</defs>
		<clipPath id="SVGID_28_">
			<use xlink:href="#SVGID_27_"  overflow="visible"/>
		</clipPath>
		<circle clip-path="url(#SVGID_28_)" fill="none" stroke="#79797A" stroke-width="3.9" cx="88.613" cy="50.221" r="5.856"/>
	</g>
	<g>
		<defs>
			<rect id="SVGID_29_" width="130.449" height="182"/>
		</defs>
		<clipPath id="SVGID_30_">
			<use xlink:href="#SVGID_29_"  overflow="visible"/>
		</clipPath>
		<path clip-path="url(#SVGID_30_)" fill="#FFFFFF" d="M12.633,177.512c1.832-2.666,1.155-6.312-1.51-8.145
			c-2.664-1.832-6.311-1.156-8.143,1.509c-1.832,2.666-1.156,6.312,1.509,8.144C7.155,180.852,10.801,180.176,12.633,177.512"/>
	</g>
	<g>
		<defs>
			<rect id="SVGID_31_" width="130.449" height="182"/>
		</defs>
		<clipPath id="SVGID_32_">
			<use xlink:href="#SVGID_31_"  overflow="visible"/>
		</clipPath>
		<circle clip-path="url(#SVGID_32_)" fill="none" stroke="#79797A" stroke-width="3.9" cx="7.807" cy="174.193" r="5.856"/>
	</g>
	<g>
		<defs>
			<rect id="SVGID_33_" width="130.449" height="182"/>
		</defs>
		<clipPath id="SVGID_34_">
			<use xlink:href="#SVGID_33_"  overflow="visible"/>
		</clipPath>
		<path clip-path="url(#SVGID_34_)" fill="#FFFFFF" d="M81.532,81.323c1.831-2.665,1.155-6.312-1.509-8.144
			c-2.666-1.832-6.312-1.155-8.144,1.51c-1.832,2.666-1.155,6.311,1.509,8.143C76.055,84.664,79.7,83.988,81.532,81.323"/>
	</g>
	<g>
		<defs>
			<rect id="SVGID_35_" width="130.449" height="182"/>
		</defs>
		<clipPath id="SVGID_36_">
			<use xlink:href="#SVGID_35_"  overflow="visible"/>
		</clipPath>
		<circle clip-path="url(#SVGID_36_)" fill="none" stroke="#79797A" stroke-width="3.9" cx="76.707" cy="78.006" r="5.856"/>
	</g>
	<g>
		<defs>
			<rect id="SVGID_37_" width="130.449" height="182"/>
		</defs>
		<clipPath id="SVGID_38_">
			<use xlink:href="#SVGID_37_"  overflow="visible"/>
		</clipPath>
		<path clip-path="url(#SVGID_38_)" fill="#FFFFFF" d="M81.532,121.623c1.831-2.665,1.155-6.311-1.509-8.143
			c-2.666-1.832-6.312-1.156-8.144,1.508c-1.832,2.666-1.155,6.312,1.509,8.144C76.055,124.964,79.7,124.288,81.532,121.623"/>
	</g>
	<g>
		<defs>
			<rect id="SVGID_39_" width="130.449" height="182"/>
		</defs>
		<clipPath id="SVGID_40_">
			<use xlink:href="#SVGID_39_"  overflow="visible"/>
		</clipPath>
		<circle clip-path="url(#SVGID_40_)" fill="none" stroke="#79797A" stroke-width="3.9" cx="76.707" cy="118.306" r="5.856"/>
	</g>
	<g>
		<defs>
			<rect id="SVGID_41_" width="130.449" height="182"/>
		</defs>
		<clipPath id="SVGID_42_">
			<use xlink:href="#SVGID_41_"  overflow="visible"/>
		</clipPath>
		<path clip-path="url(#SVGID_42_)" fill="#FFFFFF" d="M60.732,45.731c1.832-2.665,1.156-6.311-1.509-8.143
			s-6.312-1.156-8.144,1.509c-1.832,2.666-1.156,6.312,1.51,8.143C55.256,49.072,58.9,48.396,60.732,45.731"/>
	</g>
	<g>
		<circle fill="none" stroke="#79797A" stroke-width="3.9" cx="55.906" cy="42.415" r="5.856"/>
	</g>
</g>
</svg>
