<?xml version="1.0" encoding="utf-8"?>
<!-- Generator: Adobe Illustrator 15.1.0, SVG Export Plug-In . SVG Version: 6.00 Build 0)  -->
<!DOCTYPE svg PUBLIC "-//W3C//DTD SVG 1.1//EN" "http://www.w3.org/Graphics/SVG/1.1/DTD/svg11.dtd">
<svg version="1.1" id="Ebene_1" xmlns="http://www.w3.org/2000/svg" xmlns:xlink="http://www.w3.org/1999/xlink" x="0px" y="0px"
	 width="324.131px" height="312.964px" viewBox="0 0 324.131 312.964" enable-background="new 0 0 324.131 312.964"
	 xml:space="preserve">
<g>
	<g>
		<defs>
			<rect id="SVGID_1_" x="0" width="324.131" height="312.964"/>
		</defs>
		<clipPath id="SVGID_2_">
			<use xlink:href="#SVGID_1_"  overflow="visible"/>
		</clipPath>
		<g clip-path="url(#SVGID_2_)">
			<g>
				<g>
					<g opacity="0.68">
						<g>
							<defs>
								<rect id="SVGID_3_" x="-79.339" y="-51.559" width="439.747" height="441.829"/>
							</defs>
							<clipPath id="SVGID_4_">
								<use xlink:href="#SVGID_3_"  overflow="visible"/>
							</clipPath>
							<path clip-path="url(#SVGID_4_)" fill="#C0E4F5" d="M271.826,309.833c37.584-12.574,81.756-99.888,25.658-125.281
								c-52.148-23.604-91.744-21.271-129.437-39.147c-37.693-17.879-13.606-54.357-34.695-104.179
								c-20.361-48.1-35.84-34.11-68.006-40.122C11.545-8.95-16.123,52.255,9.887,78.724c26.007,26.464,12.647,52.23,12.562,88.783
								c-0.174,72.428,59.965,62.34,115.367,71.481C174.756,245.085,211.07,330.162,271.826,309.833"/>
						</g>
					</g>
				</g>
			</g>
		</g>
	</g>
</g>
</svg>
