<?xml version="1.0" encoding="utf-8"?>
<!-- Generator: Adobe Illustrator 15.1.0, SVG Export Plug-In . SVG Version: 6.00 Build 0)  -->
<!DOCTYPE svg PUBLIC "-//W3C//DTD SVG 1.1//EN" "http://www.w3.org/Graphics/SVG/1.1/DTD/svg11.dtd">
<svg version="1.1" id="Ebene_1" xmlns="http://www.w3.org/2000/svg" xmlns:xlink="http://www.w3.org/1999/xlink" x="0px" y="0px"
	 width="353.463px" height="344.186px" viewBox="0 0 353.463 344.186" enable-background="new 0 0 353.463 344.186"
	 xml:space="preserve">
<g>
	<g>
		<defs>
			<rect id="SVGID_1_" x="0" y="0" width="353.463" height="344.186"/>
		</defs>
		<clipPath id="SVGID_2_">
			<use xlink:href="#SVGID_1_"  overflow="visible"/>
		</clipPath>
		<g clip-path="url(#SVGID_2_)">
			<g>
				<g>
					<g opacity="0.68">
						<g>
							<defs>
								<rect id="SVGID_3_" x="-54.827" y="-46.085" width="442.05" height="445.594"/>
							</defs>
							<clipPath id="SVGID_4_">
								<use xlink:href="#SVGID_3_"  overflow="visible"/>
							</clipPath>
							<path clip-path="url(#SVGID_4_)" fill="#C0E4F5" d="M315.046,342.993c32.248-7.332,62.53-80.996,9.762-109.66
								c-49.056-26.646-93.404-1.801-128.947-21.793c-35.541-19.988-8.629-77.082-32.695-123.979
								C139.928,42.288,82.568,11.331,53.205,2.559C4.096-12.109-14.189,39.875,11.82,66.345
								c26.01,26.466,52.934,54.814,56.696,87.585c7.448,64.937,68.959,97.44,119.401,111.458
								C221.549,274.733,262.916,354.844,315.046,342.993"/>
						</g>
					</g>
				</g>
			</g>
		</g>
	</g>
</g>
</svg>
