<svg xmlns="http://www.w3.org/2000/svg" viewBox="0 0 320 160" id="010-rf-icons--bmu_logo_2018" width="100%" height="100%"><path d="M75.29 44.658a3.9 3.9 0 0 1-.175 1.23 2.936 2.936 0 0 1-.479.908 2.513 2.513 0 0 1-.7.615 3.431 3.431 0 0 1-.83.351v.038a2.975 2.975 0 0 1 .986.371 3.1 3.1 0 0 1 .8.683 3.262 3.262 0 0 1 .547.967 3.494 3.494 0 0 1 .2 1.22 3.791 3.791 0 0 1-.274 1.464 2.978 2.978 0 0 1-.849 1.152 4.1 4.1 0 0 1-1.454.761 7.046 7.046 0 0 1-2.089.274h-2.75v-13.47h2.6a7.48 7.48 0 0 1 2.04.244 3.861 3.861 0 0 1 1.4.693 2.588 2.588 0 0 1 .79 1.084 3.909 3.909 0 0 1 .237 1.415zm-1.718.059a2 2 0 0 0-.663-1.543 3.038 3.038 0 0 0-2.089-.6h-.9v4.647h.88a2.912 2.912 0 0 0 2.07-.664 2.4 2.4 0 0 0 .702-1.84zm.254 6.208a2.2 2.2 0 0 0-.712-1.728 2.969 2.969 0 0 0-2.04-.634h-1.152v4.724h1.054a3.249 3.249 0 0 0 2.177-.6 2.231 2.231 0 0 0 .673-1.762zm10.464 3.768h-1.444v-1.055h-.04a1.917 1.917 0 0 1-.253.342 2.5 2.5 0 0 1-.5.429 3.374 3.374 0 0 1-.732.362 2.784 2.784 0 0 1-.957.156 3.189 3.189 0 0 1-1.122-.186 2.044 2.044 0 0 1-.85-.595 2.766 2.766 0 0 1-.536-1.064 5.973 5.973 0 0 1-.186-1.611v-6.149h1.581v6.032a2.8 2.8 0 0 0 .381 1.669 1.393 1.393 0 0 0 1.181.5 1.906 1.906 0 0 0 1.152-.341 4.066 4.066 0 0 0 .742-.674v-7.186h1.583zm7.536 0V48.66a2.836 2.836 0 0 0-.4-1.708 1.447 1.447 0 0 0-1.221-.517 1.9 1.9 0 0 0-1.171.351 4.346 4.346 0 0 0-.742.683v7.224h-1.581v-9.371h1.445v1.054h.044a1.917 1.917 0 0 1 .253-.342 2.507 2.507 0 0 1 .508-.429 3.56 3.56 0 0 1 .742-.361 2.847 2.847 0 0 1 .976-.156 3.27 3.27 0 0 1 1.132.185 2.031 2.031 0 0 1 .859.595 2.885 2.885 0 0 1 .547 1.064 5.712 5.712 0 0 1 .195 1.611v6.15zm3.514-4.549a6.619 6.619 0 0 1 .371-2.382 4.384 4.384 0 0 1 .956-1.542A3.336 3.336 0 0 1 98 45.39a4.741 4.741 0 0 1 1.484-.244 3.869 3.869 0 0 1 .78.069 2.579 2.579 0 0 1 .547.165v-4.49l1.581-.175v13.978h-1.444v-1h-.048a2.287 2.287 0 0 1-.215.322 2.157 2.157 0 0 1-.43.41 2.552 2.552 0 0 1-.683.351 2.829 2.829 0 0 1-.956.147 3.074 3.074 0 0 1-1.26-.264 2.715 2.715 0 0 1-1.044-.839 4.394 4.394 0 0 1-.712-1.48 7.984 7.984 0 0 1-.26-2.196zm3.709 3.377a2.041 2.041 0 0 0 1.171-.341 2.178 2.178 0 0 0 .362-.3 2.251 2.251 0 0 0 .224-.273v-5.782a2.346 2.346 0 0 0-.5-.234 2.215 2.215 0 0 0-.712-.1 2.8 2.8 0 0 0-1.025.186 1.984 1.984 0 0 0-.83.615 3.174 3.174 0 0 0-.556 1.112 5.91 5.91 0 0 0-.2 1.679 6.735 6.735 0 0 0 .166 1.63 3.044 3.044 0 0 0 .451 1.057 1.717 1.717 0 0 0 1.445.751zm11.772-5.037q0 .606-.039 1.045t-.078.771h-4.783a4.157 4.157 0 0 0 .713 2.44 2.213 2.213 0 0 0 1.825.781 2.635 2.635 0 0 0 .742-.1 2.791 2.791 0 0 0 .986-.508c.11-.091.192-.163.244-.215l.585 1.113c-.065.065-.163.16-.293.283a2.6 2.6 0 0 1-.527.371 3.737 3.737 0 0 1-.82.322 4.3 4.3 0 0 1-1.152.137 4.147 4.147 0 0 1-1.59-.293 3 3 0 0 1-1.211-.908 4.375 4.375 0 0 1-.771-1.562 8.281 8.281 0 0 1-.273-2.274 7.274 7.274 0 0 1 .283-2.157 4.3 4.3 0 0 1 .771-1.494 3.074 3.074 0 0 1 1.132-.868 3.406 3.406 0 0 1 1.386-.283 2.689 2.689 0 0 1 2.109.849 3.715 3.715 0 0 1 .761 2.55zm-2.967-2.108a1.581 1.581 0 0 0-1.347.7 3.828 3.828 0 0 0-.586 2.03h3.416a2.166 2.166 0 0 0 .03-.283c.006-.123.009-.257.009-.4a2.539 2.539 0 0 0-.39-1.513 1.313 1.313 0 0 0-1.132-.534zm9.116.84a3.88 3.88 0 0 0-.566-.479 1.767 1.767 0 0 0-1.073-.3 1.4 1.4 0 0 0-.957.292.909.909 0 0 0-.332.7 1.261 1.261 0 0 0 .3.869 4.236 4.236 0 0 0 .927.732l.586.352a5.749 5.749 0 0 1 1.5 1.22 2.757 2.757 0 0 1-.225 3.562 3.019 3.019 0 0 1-2.215.762 3.8 3.8 0 0 1-1-.117 4.3 4.3 0 0 1-.752-.274 2.486 2.486 0 0 1-.536-.341 3.536 3.536 0 0 1-.352-.342l.761-1.249c.079.078.173.169.284.273a2.578 2.578 0 0 0 .4.3 2.532 2.532 0 0 0 .527.244 2.165 2.165 0 0 0 .683.1 1.626 1.626 0 0 0 1.074-.312.961.961 0 0 0 .371-.761 1.685 1.685 0 0 0-.088-.576 1.312 1.312 0 0 0-.264-.44 2.492 2.492 0 0 0-.429-.371q-.253-.175-.586-.39l-.585-.371a5.636 5.636 0 0 1-1.377-1.191 2.488 2.488 0 0 1-.5-1.6 2.231 2.231 0 0 1 .781-1.727 2.814 2.814 0 0 1 .869-.508 3.017 3.017 0 0 1 1.064-.185 3.553 3.553 0 0 1 .937.107 2.852 2.852 0 0 1 .674.273 2.975 2.975 0 0 1 .468.332c.124.111.225.205.3.283zm7.712 7.477V48.66a3.14 3.14 0 0 0-.332-1.66 1.186 1.186 0 0 0-1.074-.508 2.26 2.26 0 0 0-.693.1 2.369 2.369 0 0 0-.537.244 2.281 2.281 0 0 0-.41.322 6.13 6.13 0 0 0-.293.312v7.224h-1.581v-9.372h1.445v1.054h.039a3.237 3.237 0 0 1 .293-.381 2.676 2.676 0 0 1 .488-.429 2.779 2.779 0 0 1 .683-.342 2.65 2.65 0 0 1 .879-.136 2.351 2.351 0 0 1 2.264 1.249 2.94 2.94 0 0 1 .371-.42 3.015 3.015 0 0 1 .547-.41 3.154 3.154 0 0 1 .7-.3 2.989 2.989 0 0 1 .859-.117q2.852 0 2.851 3.318v6.287H129.6V48.66a2.647 2.647 0 0 0-.41-1.659 1.461 1.461 0 0 0-1.21-.508 1.822 1.822 0 0 0-1.1.322 4.231 4.231 0 0 0-.693.615 4.621 4.621 0 0 1 .059.459c.013.163.019.335.019.517v6.287zm10.444 0h-1.581v-9.371h1.581zm-.781-11.636a1.022 1.022 0 0 1-.781-.312 1.151 1.151 0 0 1-.292-.82 1.123 1.123 0 0 1 .292-.8 1.019 1.019 0 0 1 .781-.313 1 1 0 0 1 .762.313 1.124 1.124 0 0 1 .293.8 1.152 1.152 0 0 1-.293.82 1 1 0 0 1-.762.312zm8.317 11.636V48.66a2.836 2.836 0 0 0-.4-1.708 1.447 1.447 0 0 0-1.221-.517 1.9 1.9 0 0 0-1.171.351 4.346 4.346 0 0 0-.742.683v7.224h-1.581v-9.371h1.445v1.054h.039a1.917 1.917 0 0 1 .253-.342 2.507 2.507 0 0 1 .508-.429 3.56 3.56 0 0 1 .742-.361 2.847 2.847 0 0 1 .976-.156 3.266 3.266 0 0 1 1.132.185 2.031 2.031 0 0 1 .859.595 2.87 2.87 0 0 1 .547 1.064 5.712 5.712 0 0 1 .195 1.611v6.15zm5.525 0H146.6v-9.371h1.582zm-.781-11.636a1.019 1.019 0 0 1-.781-.312 1.152 1.152 0 0 1-.293-.82 1.124 1.124 0 0 1 .293-.8 1.016 1.016 0 0 1 .781-.313.993.993 0 0 1 .761.313 1.124 1.124 0 0 1 .293.8 1.152 1.152 0 0 1-.293.82 1 1 0 0 1-.761.312zm7.242 4.159a3.88 3.88 0 0 0-.566-.479 1.767 1.767 0 0 0-1.073-.3 1.4 1.4 0 0 0-.957.292.909.909 0 0 0-.332.7 1.261 1.261 0 0 0 .3.869 4.236 4.236 0 0 0 .927.732l.586.352a5.749 5.749 0 0 1 1.5 1.22 2.757 2.757 0 0 1-.225 3.562 3.019 3.019 0 0 1-2.215.762 3.8 3.8 0 0 1-1-.117 4.3 4.3 0 0 1-.752-.274 2.486 2.486 0 0 1-.536-.341 3.536 3.536 0 0 1-.352-.342l.761-1.249c.079.078.173.169.284.273a2.578 2.578 0 0 0 .4.3 2.532 2.532 0 0 0 .527.244 2.165 2.165 0 0 0 .683.1 1.626 1.626 0 0 0 1.074-.312.961.961 0 0 0 .371-.761 1.685 1.685 0 0 0-.088-.576 1.312 1.312 0 0 0-.264-.44 2.492 2.492 0 0 0-.429-.371q-.254-.175-.586-.39l-.585-.371a5.636 5.636 0 0 1-1.377-1.191 2.488 2.488 0 0 1-.5-1.6 2.231 2.231 0 0 1 .781-1.727 2.814 2.814 0 0 1 .869-.508 3.017 3.017 0 0 1 1.064-.185 3.553 3.553 0 0 1 .937.107 2.852 2.852 0 0 1 .674.273 2.975 2.975 0 0 1 .468.332c.124.111.225.205.3.283zm6.794-.606h-2.05v5.19a2.541 2.541 0 0 0 .254 1.357.976.976 0 0 0 .859.361 1.687 1.687 0 0 0 .605-.1 2.083 2.083 0 0 0 .371-.176l.215 1.269a2.7 2.7 0 0 1-.469.244 2.467 2.467 0 0 1-1 .166 2.319 2.319 0 0 1-1.816-.674 3.319 3.319 0 0 1-.6-2.235V46.61h-1.132v-1.054l1.132-.234.176-2.616h1.405v2.616h2.245zm7.672 1.874c0 .4-.012.752-.039 1.045s-.052.55-.078.771h-4.783a4.164 4.164 0 0 0 .713 2.44 2.214 2.214 0 0 0 1.825.781 2.625 2.625 0 0 0 .742-.1 2.863 2.863 0 0 0 .576-.235 2.8 2.8 0 0 0 .41-.273c.111-.091.192-.163.244-.215l.586 1.113c-.065.065-.163.16-.293.283a2.633 2.633 0 0 1-.527.371 3.778 3.778 0 0 1-.82.322 4.306 4.306 0 0 1-1.152.137 4.152 4.152 0 0 1-1.591-.293 3.007 3.007 0 0 1-1.21-.908 4.392 4.392 0 0 1-.772-1.562 8.281 8.281 0 0 1-.273-2.274 7.274 7.274 0 0 1 .283-2.157 4.33 4.33 0 0 1 .771-1.494 3.077 3.077 0 0 1 1.133-.868 3.4 3.4 0 0 1 1.386-.283 2.685 2.685 0 0 1 2.108.849 3.71 3.71 0 0 1 .761 2.55zm-2.967-2.108a1.582 1.582 0 0 0-1.347.7 3.837 3.837 0 0 0-.586 2.03h3.417a2.033 2.033 0 0 0 .029-.283 7.11 7.11 0 0 0 .01-.4 2.532 2.532 0 0 0-.391-1.513 1.312 1.312 0 0 0-1.132-.534zm9.2.332a1.129 1.129 0 0 0-.254-.1 1.9 1.9 0 0 0-.527-.058 1.612 1.612 0 0 0-1.161.4 2.334 2.334 0 0 0-.6.869v6.872h-1.581v-9.369h1.445v1.269h.039a3.111 3.111 0 0 1 .253-.537 1.949 1.949 0 0 1 .391-.469 1.739 1.739 0 0 1 .556-.322 2.266 2.266 0 0 1 .771-.117 2 2 0 0 1 .537.059c.137.039.244.071.322.1zm3.143 7.985h-1.59v-9.371h1.581zm-.79-11.636a1.022 1.022 0 0 1-.781-.312 1.151 1.151 0 0 1-.292-.82 1.123 1.123 0 0 1 .292-.8 1.019 1.019 0 0 1 .781-.313 1 1 0 0 1 .762.313 1.123 1.123 0 0 1 .292.8 1.151 1.151 0 0 1-.292.82 1 1 0 0 1-.762.312zm9.761 11.636h-1.444v-1.055h-.039a1.936 1.936 0 0 1-.254.342 2.5 2.5 0 0 1-.5.429 3.374 3.374 0 0 1-.732.362 2.784 2.784 0 0 1-.957.156 3.189 3.189 0 0 1-1.122-.186 2.034 2.034 0 0 1-.849-.595 2.753 2.753 0 0 1-.537-1.064 5.973 5.973 0 0 1-.186-1.611v-6.149h1.582v6.032a2.809 2.809 0 0 0 .38 1.669 1.393 1.393 0 0 0 1.181.5 1.906 1.906 0 0 0 1.152-.341 4.033 4.033 0 0 0 .742-.674v-7.186h1.581zm7.341 0V48.66a3.14 3.14 0 0 0-.328-1.66 1.186 1.186 0 0 0-1.074-.508 2.26 2.26 0 0 0-.693.1 2.369 2.369 0 0 0-.537.244 2.281 2.281 0 0 0-.41.322 6.13 6.13 0 0 0-.293.312v7.224h-1.581v-9.372h1.445v1.054h.039a3.237 3.237 0 0 1 .293-.381 2.676 2.676 0 0 1 .488-.429 2.779 2.779 0 0 1 .683-.342 2.65 2.65 0 0 1 .879-.136 2.351 2.351 0 0 1 2.264 1.249 2.94 2.94 0 0 1 .371-.42 3.015 3.015 0 0 1 .547-.41 3.154 3.154 0 0 1 .7-.3 2.989 2.989 0 0 1 .859-.117q2.852 0 2.851 3.318v6.287h-1.582V48.66a2.647 2.647 0 0 0-.41-1.659 1.461 1.461 0 0 0-1.21-.508 1.822 1.822 0 0 0-1.1.322 4.231 4.231 0 0 0-.693.615 4.621 4.621 0 0 1 .059.459c.013.163.019.335.019.517v6.287zM71.835 66.3h-1.913v8.082H68.34V66.3h-1.132v-1.058l1.132-.214v-1.874a3.576 3.576 0 0 1 .215-1.308 2.581 2.581 0 0 1 .566-.9 2.07 2.07 0 0 1 .82-.508 3.138 3.138 0 0 1 1-.156 2.382 2.382 0 0 1 .859.136 2.915 2.915 0 0 1 .468.215l-.331 1.308a2.028 2.028 0 0 0-.332-.166 1.409 1.409 0 0 0-.527-.088 1.054 1.054 0 0 0-.859.352 2.074 2.074 0 0 0-.293 1.288v1.679h2.104zm8.121 8.082h-1.444v-1.057h-.039a1.954 1.954 0 0 1-.254.341 2.54 2.54 0 0 1-.5.43 3.374 3.374 0 0 1-.732.361 2.784 2.784 0 0 1-.957.156 3.212 3.212 0 0 1-1.122-.185 2.036 2.036 0 0 1-.849-.6 2.753 2.753 0 0 1-.537-1.064 5.971 5.971 0 0 1-.186-1.61v-6.15h1.581v6.033a2.8 2.8 0 0 0 .383 1.673 1.393 1.393 0 0 0 1.181.5 1.9 1.9 0 0 0 1.152-.342 4.03 4.03 0 0 0 .742-.674v-7.186h1.581zm-3.885-12.068a.975.975 0 0 1-.273.722.942.942 0 0 1-1.328 0 1.091 1.091 0 0 1 0-1.444.942.942 0 0 1 1.328 0 .977.977 0 0 1 .273.722zm3.007 0a.972.972 0 0 1-.274.722.94.94 0 0 1-1.327 0 1.091 1.091 0 0 1 0-1.444.94.94 0 0 1 1.327 0 .973.973 0 0 1 .274.722zm7.418 4.08a1.143 1.143 0 0 0-.254-.1 1.894 1.894 0 0 0-.527-.059 1.614 1.614 0 0 0-1.161.4 2.342 2.342 0 0 0-.6.869v6.872h-1.577v-9.368h1.445v1.269h.039a3.111 3.111 0 0 1 .253-.537 1.945 1.945 0 0 1 .391-.468 1.721 1.721 0 0 1 .556-.322 2.266 2.266 0 0 1 .771-.117 2.009 2.009 0 0 1 .537.058c.137.039.244.072.322.1zm14.31 2.772a6.369 6.369 0 0 1-1.113 4.061 4.8 4.8 0 0 1-6.647.1 6.434 6.434 0 0 1-1.084-4.159v-8.259h1.7v8.277a5.17 5.17 0 0 0 .693 3.016 2.41 2.41 0 0 0 2.079.947 2.371 2.371 0 0 0 2.069-.927 5.334 5.334 0 0 0 .664-3.036v-8.277h1.64zm7.477 5.213v-6.032a3.146 3.146 0 0 0-.332-1.66 1.188 1.188 0 0 0-1.074-.507 2.262 2.262 0 0 0-.693.1 2.381 2.381 0 0 0-.536.244 2.291 2.291 0 0 0-.41.322 5.326 5.326 0 0 0-.293.313v7.223h-1.582v-9.374h1.445v1.054h.039a3.159 3.159 0 0 1 .293-.38 2.679 2.679 0 0 1 .488-.43 2.777 2.777 0 0 1 .683-.341 2.654 2.654 0 0 1 .879-.137 2.351 2.351 0 0 1 2.264 1.249 2.884 2.884 0 0 1 .371-.419 2.992 2.992 0 0 1 .547-.41 3.1 3.1 0 0 1 .7-.3 2.979 2.979 0 0 1 .859-.117q2.85 0 2.85 3.319v6.286H113.2v-6.035a2.658 2.658 0 0 0-.41-1.66 1.466 1.466 0 0 0-1.211-.507 1.815 1.815 0 0 0-1.1.322 4.18 4.18 0 0 0-.693.615c.026.143.046.3.059.458s.019.335.019.518v6.286zm19.581-9.371l-2.85 9.371h-1.406l-.957-3.28q-.215-.7-.361-1.308a7.087 7.087 0 0 1-.185-1.152h-.039a5.911 5.911 0 0 1-.215 1.172q-.175.624-.41 1.308l-1.074 3.26h-1.347l-2.948-9.371h1.7l1.405 5.31q.2.743.342 1.377a6.287 6.287 0 0 1 .166 1.2h.039a6.422 6.422 0 0 1 .244-1.181q.186-.615.42-1.337l1.015-3.065-.7-2.3h1.64l1.425 5.174q.215.8.391 1.5a6.074 6.074 0 0 1 .195 1.21h.039a9.121 9.121 0 0 1 .2-1.22q.156-.712.371-1.493l1.386-5.174zm7.34 3.163q0 .6-.039 1.044t-.078.771H130.3a4.167 4.167 0 0 0 .713 2.441 2.217 2.217 0 0 0 1.825.781 2.629 2.629 0 0 0 .742-.1 2.807 2.807 0 0 0 .576-.234 2.854 2.854 0 0 0 .41-.274c.11-.091.192-.162.244-.214l.59 1.114c-.066.066-.163.16-.293.283a2.593 2.593 0 0 1-.527.371 3.828 3.828 0 0 1-.82.323 4.314 4.314 0 0 1-1.152.136 4.134 4.134 0 0 1-1.591-.293 3.01 3.01 0 0 1-1.211-.908 4.395 4.395 0 0 1-.771-1.561 8.288 8.288 0 0 1-.273-2.275 7.279 7.279 0 0 1 .283-2.157 4.315 4.315 0 0 1 .771-1.493 3.077 3.077 0 0 1 1.132-.869 3.407 3.407 0 0 1 1.387-.283 2.687 2.687 0 0 1 2.108.849 3.718 3.718 0 0 1 .757 2.548zm-2.967-2.109a1.584 1.584 0 0 0-1.347.7 3.832 3.832 0 0 0-.59 2.038h3.417a2.241 2.241 0 0 0 .029-.284c.006-.123.01-.257.01-.4a2.532 2.532 0 0 0-.391-1.513 1.312 1.312 0 0 0-1.128-.541zm6.637 6.13a1.489 1.489 0 0 0 .166.82.657.657 0 0 0 .576.235 1.43 1.43 0 0 0 .362-.039 1.237 1.237 0 0 0 .224-.079l.137 1.172a3.348 3.348 0 0 1-.43.156 2.9 2.9 0 0 1-.839.1 1.745 1.745 0 0 1-1.289-.488 2.436 2.436 0 0 1-.488-1.738V60.577l1.581-.176zm6.892-5.895h-2.05v5.193a2.536 2.536 0 0 0 .254 1.356.975.975 0 0 0 .859.362 1.686 1.686 0 0 0 .6-.1 2.014 2.014 0 0 0 .371-.176l.215 1.269a2.706 2.706 0 0 1-.469.244 2.469 2.469 0 0 1-1 .166 2.315 2.315 0 0 1-1.815-.673 3.314 3.314 0 0 1-.605-2.236V66.3H141v-1.058l1.133-.234.175-2.616h1.406v2.616h2.245zm1.542 6.969a.993.993 0 0 1 .3-.791 1.051 1.051 0 0 1 .712-.263 1.122 1.122 0 0 1 .928.468 2.367 2.367 0 0 1 .361 1.445 3.049 3.049 0 0 1-.2 1.162 2.884 2.884 0 0 1-.537.859 3.166 3.166 0 0 1-.732.595 4.56 4.56 0 0 1-.791.371l-.332-.683a3.382 3.382 0 0 0 1-.752 2.046 2.046 0 0 0 .429-1.3h-.058a1.093 1.093 0 0 1-.762-.283 1.065 1.065 0 0 1-.318-.828zm17.355-12.357v13.47h-1.542l-4.529-8.079q-.41-.742-.771-1.425a4.858 4.858 0 0 1-.459-1.113h-.039a5.966 5.966 0 0 1 .107 1.191q.011.76.01 1.6v7.829h-1.7V60.909h1.542l4.529 7.984q.41.743.771 1.425a4.858 4.858 0 0 1 .459 1.113h.039a5.966 5.966 0 0 1-.107-1.191q-.011-.76-.01-1.6v-7.73zM166.869 72a2.722 2.722 0 0 1 .313-1.366 2.552 2.552 0 0 1 .839-.889 3.611 3.611 0 0 1 1.24-.488 7.549 7.549 0 0 1 1.513-.146h.488v-.9a2.423 2.423 0 0 0-.42-1.64 1.538 1.538 0 0 0-1.181-.449 2.123 2.123 0 0 0-1.171.3 7 7 0 0 0-.742.537l-.664-1.054a5.011 5.011 0 0 1 .4-.351 3.381 3.381 0 0 1 .6-.371 4.106 4.106 0 0 1 .8-.293 4.038 4.038 0 0 1 1.015-.117 2.839 2.839 0 0 1 2.187.8 3.721 3.721 0 0 1 .742 2.577v4.276q0 .6.039 1.181a7.367 7.367 0 0 0 .078.771h-1.5l-.059-1.035h-.039a2.479 2.479 0 0 1-.234.4 1.911 1.911 0 0 1-.391.41 2.365 2.365 0 0 1-.566.323 2.042 2.042 0 0 1-.781.136 2.5 2.5 0 0 1-.986-.195 2.427 2.427 0 0 1-1.327-1.376 2.859 2.859 0 0 1-.193-1.041zm2.831 1.269a1.629 1.629 0 0 0 .586-.1 1.914 1.914 0 0 0 .439-.235 1.554 1.554 0 0 0 .313-.3c.084-.111.159-.2.224-.283v-2.07l-.508.02a3.645 3.645 0 0 0-1.718.39 1.22 1.22 0 0 0-.585 1.132 1.551 1.551 0 0 0 .332 1.084 1.182 1.182 0 0 0 .917.359zm9.507-6.969h-2.049v5.19a2.538 2.538 0 0 0 .253 1.356.978.978 0 0 0 .859.362 1.692 1.692 0 0 0 .606-.1 2.047 2.047 0 0 0 .371-.176l.214 1.269a2.643 2.643 0 0 1-.468.244 2.469 2.469 0 0 1-1 .166 2.315 2.315 0 0 1-1.815-.673 3.314 3.314 0 0 1-.606-2.236V66.3h-1.132v-1.058l1.132-.234.176-2.616h1.406v2.616h2.246zm8.356 8.082h-1.445v-1.057h-.039a1.884 1.884 0 0 1-.253.341 2.6 2.6 0 0 1-.5.43 3.374 3.374 0 0 1-.732.361 2.792 2.792 0 0 1-.957.156 3.208 3.208 0 0 1-1.122-.185 2.046 2.046 0 0 1-.85-.6 2.766 2.766 0 0 1-.536-1.064 5.971 5.971 0 0 1-.186-1.61v-6.15h1.581v6.033a2.8 2.8 0 0 0 .381 1.669 1.391 1.391 0 0 0 1.181.5 1.9 1.9 0 0 0 1.152-.342 4.063 4.063 0 0 0 .742-.674v-7.182h1.581zm6.54-7.985a1.143 1.143 0 0 0-.254-.1 1.9 1.9 0 0 0-.527-.059 1.61 1.61 0 0 0-1.161.4 2.342 2.342 0 0 0-.6.869v6.872h-1.581v-9.371h1.444v1.269h.039a3.193 3.193 0 0 1 .254-.537 1.922 1.922 0 0 1 .391-.468 1.721 1.721 0 0 1 .556-.322 2.266 2.266 0 0 1 .771-.117 2.009 2.009 0 0 1 .537.058c.137.039.244.072.322.1zm5.525.508a4 4 0 0 0-.566-.479 1.772 1.772 0 0 0-1.074-.3 1.4 1.4 0 0 0-.957.293.906.906 0 0 0-.332.7 1.258 1.258 0 0 0 .3.868 4.285 4.285 0 0 0 .927.732l.586.352a5.732 5.732 0 0 1 1.5 1.22 2.759 2.759 0 0 1-.224 3.563 3.025 3.025 0 0 1-2.216.761 3.808 3.808 0 0 1-1-.117 4.337 4.337 0 0 1-.751-.273 2.434 2.434 0 0 1-.537-.342 3.534 3.534 0 0 1-.352-.342l.762-1.249c.078.078.172.169.283.273a2.627 2.627 0 0 0 .4.3 2.481 2.481 0 0 0 .527.244 2.163 2.163 0 0 0 .683.1 1.626 1.626 0 0 0 1.074-.313.961.961 0 0 0 .371-.761 1.693 1.693 0 0 0-.088-.576 1.3 1.3 0 0 0-.263-.439 2.458 2.458 0 0 0-.43-.371q-.253-.176-.585-.391l-.586-.371a5.63 5.63 0 0 1-1.376-1.19 2.492 2.492 0 0 1-.5-1.6 2.231 2.231 0 0 1 .796-1.73 2.809 2.809 0 0 1 .868-.508 3.04 3.04 0 0 1 1.064-.185 3.59 3.59 0 0 1 .937.107 2.794 2.794 0 0 1 .674.274 2.924 2.924 0 0 1 .469.331c.123.111.224.2.3.284zm8-.078c-.039-.039-.1-.1-.185-.176a2 2 0 0 0-.323-.234 2.221 2.221 0 0 0-.468-.2 2.029 2.029 0 0 0-.625-.088 2.423 2.423 0 0 0-.947.185 1.92 1.92 0 0 0-.761.6 3.056 3.056 0 0 0-.508 1.064 5.927 5.927 0 0 0-.185 1.591 7.673 7.673 0 0 0 .166 1.737 3.25 3.25 0 0 0 .459 1.123 1.7 1.7 0 0 0 .712.605 2.264 2.264 0 0 0 .927.186 1.994 1.994 0 0 0 1.1-.254 3.79 3.79 0 0 0 .536-.41l.645 1.093a3.1 3.1 0 0 1-.283.283 2.441 2.441 0 0 1-.479.322 3.243 3.243 0 0 1-.712.264 3.949 3.949 0 0 1-.967.107 4.157 4.157 0 0 1-1.464-.254 2.9 2.9 0 0 1-1.191-.839 4.219 4.219 0 0 1-.8-1.523 7.9 7.9 0 0 1-.293-2.323 6.54 6.54 0 0 1 .351-2.284 4.255 4.255 0 0 1 .918-1.513 3.507 3.507 0 0 1 1.259-.84 4.051 4.051 0 0 1 2.323-.165 3.119 3.119 0 0 1 .684.243 2.278 2.278 0 0 1 .468.313c.124.111.225.2.3.283zm7.438 7.555v-6.035a2.833 2.833 0 0 0-.4-1.709 1.446 1.446 0 0 0-1.22-.517 1.9 1.9 0 0 0-1.172.351 4.348 4.348 0 0 0-.742.684v7.223h-1.581v-13.8l1.581-.176v5.564h.039a3.738 3.738 0 0 1 .245-.313 2.185 2.185 0 0 1 .458-.39 3.178 3.178 0 0 1 .713-.342 3.011 3.011 0 0 1 .986-.146 2.5 2.5 0 0 1 1.952.8 3.931 3.931 0 0 1 .722 2.655v6.15zm10.5 0h-1.445v-1.057h-.039a1.853 1.853 0 0 1-.254.341 2.562 2.562 0 0 1-.5.43 3.374 3.374 0 0 1-.732.361 2.792 2.792 0 0 1-.957.156 3.214 3.214 0 0 1-1.123-.185 2.043 2.043 0 0 1-.849-.6 2.781 2.781 0 0 1-.537-1.064 6.015 6.015 0 0 1-.185-1.61v-6.15h1.581v6.033a2.8 2.8 0 0 0 .381 1.669 1.391 1.391 0 0 0 1.181.5 1.9 1.9 0 0 0 1.152-.342 4.063 4.063 0 0 0 .742-.674v-7.182h1.581zM232 66.3h-2.05v5.19a2.536 2.536 0 0 0 .254 1.356.975.975 0 0 0 .859.362 1.686 1.686 0 0 0 .6-.1 2.014 2.014 0 0 0 .371-.176l.215 1.269a2.706 2.706 0 0 1-.469.244 2.469 2.469 0 0 1-1 .166 2.315 2.315 0 0 1-1.815-.673 3.314 3.314 0 0 1-.6-2.236V66.3h-1.133v-1.058l1.133-.234.175-2.616h1.406v2.616h2.245zm7.028-.274l-3.788 6.97v.039h4.042l-.137 1.347h-5.954v-1.018l3.9-7.028V66.3H233.4v-1.292h5.623zM74.451 94.065h-1.445v-1.054h-.039a1.885 1.885 0 0 1-.254.342 2.593 2.593 0 0 1-.5.429 3.329 3.329 0 0 1-.732.361 2.792 2.792 0 0 1-.957.156 3.181 3.181 0 0 1-1.122-.185 2.046 2.046 0 0 1-.85-.595 2.788 2.788 0 0 1-.537-1.064 6.018 6.018 0 0 1-.185-1.611V84.7h1.581v6.032A2.8 2.8 0 0 0 69.8 92.4a1.391 1.391 0 0 0 1.181.5 1.9 1.9 0 0 0 1.152-.342 4.1 4.1 0 0 0 .742-.673V84.7h1.581zm7.536 0v-6.032a2.828 2.828 0 0 0-.4-1.708 1.444 1.444 0 0 0-1.22-.518 1.892 1.892 0 0 0-1.171.352 4.309 4.309 0 0 0-.742.683v7.223h-1.582V84.7h1.444v1.054h.039a1.936 1.936 0 0 1 .254-.342 2.419 2.419 0 0 1 .508-.429 3.586 3.586 0 0 1 .742-.362 2.843 2.843 0 0 1 .976-.156 3.27 3.27 0 0 1 1.132.186 2.028 2.028 0 0 1 .859.595 2.877 2.877 0 0 1 .547 1.064 5.712 5.712 0 0 1 .195 1.611v6.149zm3.513-4.548a6.639 6.639 0 0 1 .37-2.382 4.4 4.4 0 0 1 .957-1.542 3.336 3.336 0 0 1 1.328-.83 4.711 4.711 0 0 1 1.483-.244 3.953 3.953 0 0 1 .781.068 2.653 2.653 0 0 1 .547.166v-4.49l1.581-.176v13.978H91.1v-1h-.039a2.208 2.208 0 0 1-.644.732 2.611 2.611 0 0 1-.683.351 2.832 2.832 0 0 1-.957.146 3.072 3.072 0 0 1-1.259-.263 2.718 2.718 0 0 1-1.044-.84 4.36 4.36 0 0 1-.713-1.483 7.946 7.946 0 0 1-.261-2.191zm3.709 3.377a2.1 2.1 0 0 0 .664-.1 2.024 2.024 0 0 0 .507-.244 2.118 2.118 0 0 0 .361-.3 2.253 2.253 0 0 0 .225-.274V86.2a2.4 2.4 0 0 0-.5-.235 2.22 2.22 0 0 0-.713-.1 2.817 2.817 0 0 0-1.024.185 2 2 0 0 0-.83.615 3.2 3.2 0 0 0-.557 1.113 5.941 5.941 0 0 0-.2 1.679 6.786 6.786 0 0 0 .166 1.63 3.057 3.057 0 0 0 .459 1.054 1.771 1.771 0 0 0 .664.576 1.8 1.8 0 0 0 .779.177zm15.012 1.171v-6.032a2.829 2.829 0 0 0-.4-1.708 1.446 1.446 0 0 0-1.22-.518 1.892 1.892 0 0 0-1.171.352 4.272 4.272 0 0 0-.742.683v7.223h-1.58V84.7h1.444v1.054h.039a1.936 1.936 0 0 1 .254-.342 2.393 2.393 0 0 1 .508-.429 3.6 3.6 0 0 1 .741-.362 2.853 2.853 0 0 1 .977-.156 3.274 3.274 0 0 1 1.132.186 2.028 2.028 0 0 1 .859.595 2.892 2.892 0 0 1 .547 1.064 5.712 5.712 0 0 1 .2 1.611v6.149zm10.5 0h-1.444v-1.054h-.039a1.936 1.936 0 0 1-.254.342 2.571 2.571 0 0 1-.5.429 3.329 3.329 0 0 1-.732.361 2.784 2.784 0 0 1-.957.156 3.189 3.189 0 0 1-1.122-.185 2.043 2.043 0 0 1-.849-.595 2.76 2.76 0 0 1-.537-1.064 5.973 5.973 0 0 1-.186-1.611V84.7h1.582v6.032a2.809 2.809 0 0 0 .38 1.669 1.393 1.393 0 0 0 1.181.5 1.9 1.9 0 0 0 1.152-.342 4.031 4.031 0 0 0 .742-.673V84.7h1.581zm5.955-5.076l3.221 5.076h-1.894l-2.635-4.373h-.645v4.373h-1.581v-13.8l1.581-.176v8.258h.664l2.519-3.65h1.874zm6.188 2.89a1.494 1.494 0 0 0 .166.82.659.659 0 0 0 .576.234 1.422 1.422 0 0 0 .361-.039 1.234 1.234 0 0 0 .225-.078l.136 1.171a3.317 3.317 0 0 1-.429.156 2.908 2.908 0 0 1-.84.1 1.743 1.743 0 0 1-1.288-.488 2.435 2.435 0 0 1-.488-1.738V80.263l1.581-.176zm8.9-4.022q0 .606-.039 1.045t-.078.771h-4.777a4.166 4.166 0 0 0 .713 2.44 2.214 2.214 0 0 0 1.825.781 2.624 2.624 0 0 0 .742-.1 2.769 2.769 0 0 0 .986-.507c.111-.091.192-.163.244-.215l.586 1.113c-.065.065-.163.159-.293.283a2.674 2.674 0 0 1-.527.371 3.829 3.829 0 0 1-.82.322 4.314 4.314 0 0 1-1.152.136 4.152 4.152 0 0 1-1.591-.292 3.01 3.01 0 0 1-1.21-.908 4.4 4.4 0 0 1-.772-1.562 8.281 8.281 0 0 1-.273-2.274 7.286 7.286 0 0 1 .283-2.158 4.324 4.324 0 0 1 .771-1.493 3.091 3.091 0 0 1 1.133-.869 3.415 3.415 0 0 1 1.386-.283 2.687 2.687 0 0 1 2.108.849 3.714 3.714 0 0 1 .761 2.55zm-2.964-2.108a1.581 1.581 0 0 0-1.347.7 3.837 3.837 0 0 0-.586 2.03h3.417a2.05 2.05 0 0 0 .029-.283c.006-.124.01-.257.01-.4a2.53 2.53 0 0 0-.391-1.513 1.312 1.312 0 0 0-1.132-.534zm4.529 5.935a2.713 2.713 0 0 1 .313-1.367 2.549 2.549 0 0 1 .839-.888 3.564 3.564 0 0 1 1.24-.488 7.475 7.475 0 0 1 1.513-.147h.488v-.9a2.425 2.425 0 0 0-.42-1.64 1.54 1.54 0 0 0-1.181-.449 2.112 2.112 0 0 0-1.171.3 7 7 0 0 0-.742.537l-.664-1.054a4.652 4.652 0 0 1 .4-.352 3.345 3.345 0 0 1 .6-.371 4.106 4.106 0 0 1 .8-.293 4.033 4.033 0 0 1 1.015-.117 2.837 2.837 0 0 1 2.187.8 3.718 3.718 0 0 1 .742 2.577v4.275c0 .4.012.8.039 1.181a7.367 7.367 0 0 0 .078.771h-1.5l-.058-1.034h-.047a2.522 2.522 0 0 1-.234.4 1.985 1.985 0 0 1-.391.41 2.364 2.364 0 0 1-.566.322 2.046 2.046 0 0 1-.781.136 2.5 2.5 0 0 1-.986-.2 2.419 2.419 0 0 1-1.327-1.376 2.857 2.857 0 0 1-.183-1.033zm2.831 1.268a1.633 1.633 0 0 0 .586-.1 1.875 1.875 0 0 0 .439-.234 1.526 1.526 0 0 0 .312-.3c.085-.111.16-.2.225-.283v-2.069l-.508.019a3.629 3.629 0 0 0-1.718.391 1.219 1.219 0 0 0-.585 1.132 1.553 1.553 0 0 0 .331 1.083 1.184 1.184 0 0 0 .921.361zm9.624-6.871a1.115 1.115 0 0 0-.253-.1 1.9 1.9 0 0 0-.527-.059 1.615 1.615 0 0 0-1.162.4 2.327 2.327 0 0 0-.595.868v6.872h-1.582V84.7h1.445v1.268h.039a3.073 3.073 0 0 1 .254-.536 1.923 1.923 0 0 1 .39-.469 1.731 1.731 0 0 1 .556-.322 2.268 2.268 0 0 1 .772-.117 2.019 2.019 0 0 1 .537.058c.136.039.244.072.322.1zm7.341 1.776q0 .606-.039 1.045t-.078.771h-4.783a4.167 4.167 0 0 0 .712 2.44 2.216 2.216 0 0 0 1.826.781 2.622 2.622 0 0 0 .741-.1 2.769 2.769 0 0 0 .986-.507c.111-.091.192-.163.244-.215l.586 1.113c-.065.065-.163.159-.293.283a2.674 2.674 0 0 1-.527.371 3.808 3.808 0 0 1-.82.322 4.3 4.3 0 0 1-1.152.136 4.156 4.156 0 0 1-1.591-.292 3.016 3.016 0 0 1-1.21-.908 4.383 4.383 0 0 1-.771-1.562 8.239 8.239 0 0 1-.274-2.274 7.284 7.284 0 0 1 .284-2.158 4.29 4.29 0 0 1 .771-1.493 3.08 3.08 0 0 1 1.132-.869 3.415 3.415 0 0 1 1.386-.283 2.685 2.685 0 0 1 2.108.849 3.714 3.714 0 0 1 .765 2.55zm-2.968-2.108a1.584 1.584 0 0 0-1.347.7 3.837 3.837 0 0 0-.585 2.03h3.416a2.05 2.05 0 0 0 .029-.283c.007-.124.01-.257.01-.4a2.537 2.537 0 0 0-.39-1.513 1.315 1.315 0 0 0-1.13-.534zm14.643-3.085a3.27 3.27 0 0 0-.263-.224 2.522 2.522 0 0 0-.469-.283 3.651 3.651 0 0 0-.664-.235 3.421 3.421 0 0 0-.849-.1 1.754 1.754 0 0 0-1.327.468 1.53 1.53 0 0 0-.449 1.094 2.321 2.321 0 0 0 .107.722 2.492 2.492 0 0 0 .332.654 4.43 4.43 0 0 0 .556.644 10.353 10.353 0 0 0 .8.693l1.093.9c.312.261.608.527.888.8a5.206 5.206 0 0 1 .722.868 4.125 4.125 0 0 1 .479 1 3.852 3.852 0 0 1 .175 1.2 3.35 3.35 0 0 1-.956 2.489 3.808 3.808 0 0 1-2.792.946 5.386 5.386 0 0 1-1.278-.136 5.067 5.067 0 0 1-.967-.332 4.011 4.011 0 0 1-1.093-.742l.683-1.484q.117.118.352.313a4.2 4.2 0 0 0 .566.39 3.782 3.782 0 0 0 .751.332 3.058 3.058 0 0 0 .947.137 2.173 2.173 0 0 0 1.533-.5 1.561 1.561 0 0 0 .536-1.181 2.653 2.653 0 0 0-.107-.781 2.8 2.8 0 0 0-.312-.674 3.758 3.758 0 0 0-.518-.634q-.312-.312-.741-.664l-1.094-.917q-.565-.47-.995-.889a5.239 5.239 0 0 1-.732-.878 3.64 3.64 0 0 1-.459-1 4.453 4.453 0 0 1-.156-1.239 3.023 3.023 0 0 1 .244-1.211 2.8 2.8 0 0 1 .693-.976 3.256 3.256 0 0 1 1.083-.644 4.125 4.125 0 0 1 1.435-.234 4.88 4.88 0 0 1 1.171.126 5.083 5.083 0 0 1 .869.293 2.7 2.7 0 0 1 .576.342c.143.117.254.2.332.254zm4.607 11.4h-1.581V84.7h1.581zm-.781-11.635a1.018 1.018 0 0 1-.78-.312 1.149 1.149 0 0 1-.293-.82 1.12 1.12 0 0 1 .293-.8 1.018 1.018 0 0 1 .78-.312 1 1 0 0 1 .762.312 1.125 1.125 0 0 1 .293.8 1.153 1.153 0 0 1-.293.82 1 1 0 0 1-.76.313zm8.415 4.08c-.039-.039-.1-.1-.186-.176a1.949 1.949 0 0 0-.322-.234 2.259 2.259 0 0 0-.469-.2 2.053 2.053 0 0 0-.624-.088 2.4 2.4 0 0 0-.947.186 1.9 1.9 0 0 0-.761.595 3.065 3.065 0 0 0-.508 1.064 5.891 5.891 0 0 0-.185 1.591 7.689 7.689 0 0 0 .166 1.738 3.272 3.272 0 0 0 .458 1.122 1.7 1.7 0 0 0 .713.605 2.264 2.264 0 0 0 .927.186 1.991 1.991 0 0 0 1.1-.254 3.753 3.753 0 0 0 .537-.41l.644 1.093a2.76 2.76 0 0 1-.283.283 2.445 2.445 0 0 1-.478.323 3.185 3.185 0 0 1-.713.263 3.9 3.9 0 0 1-.966.107 4.171 4.171 0 0 1-1.464-.253 2.885 2.885 0 0 1-1.191-.84 4.215 4.215 0 0 1-.8-1.522 7.909 7.909 0 0 1-.292-2.324 6.54 6.54 0 0 1 .351-2.284 4.25 4.25 0 0 1 .918-1.513 3.491 3.491 0 0 1 1.259-.839 3.894 3.894 0 0 1 1.4-.264 3.941 3.941 0 0 1 .927.1 3.057 3.057 0 0 1 .683.244 2.259 2.259 0 0 1 .469.312c.123.111.224.2.3.283zm7.438 7.555v-6.031a2.828 2.828 0 0 0-.4-1.708 1.444 1.444 0 0 0-1.22-.518 1.892 1.892 0 0 0-1.171.352 4.309 4.309 0 0 0-.742.683v7.223h-1.581v-13.8l1.581-.176v5.564h.039a3.546 3.546 0 0 1 .244-.312 2.221 2.221 0 0 1 .459-.391 3.135 3.135 0 0 1 .713-.341 2.978 2.978 0 0 1 .985-.147 2.5 2.5 0 0 1 1.953.8 3.928 3.928 0 0 1 .722 2.655v6.149zm9.956-6.208q0 .606-.039 1.045t-.078.771h-4.783a4.159 4.159 0 0 0 .713 2.44 2.213 2.213 0 0 0 1.825.781 2.634 2.634 0 0 0 .742-.1 2.807 2.807 0 0 0 .576-.234 2.855 2.855 0 0 0 .41-.273c.11-.091.191-.163.244-.215l.585 1.113c-.065.065-.163.159-.293.283a2.645 2.645 0 0 1-.527.371 3.788 3.788 0 0 1-.82.322 4.3 4.3 0 0 1-1.152.136 4.147 4.147 0 0 1-1.59-.292 3.013 3.013 0 0 1-1.211-.908 4.383 4.383 0 0 1-.771-1.562 8.281 8.281 0 0 1-.266-2.271 7.286 7.286 0 0 1 .283-2.158 4.29 4.29 0 0 1 .771-1.493 3.088 3.088 0 0 1 1.132-.869 3.422 3.422 0 0 1 1.386-.283 2.689 2.689 0 0 1 2.109.849 3.719 3.719 0 0 1 .756 2.548zm-2.967-2.108a1.581 1.581 0 0 0-1.347.7 3.828 3.828 0 0 0-.586 2.03h3.416a2.187 2.187 0 0 0 .03-.283c.006-.124.009-.257.009-.4a2.537 2.537 0 0 0-.39-1.513 1.314 1.314 0 0 0-1.13-.533zm9.195.332a1.129 1.129 0 0 0-.254-.1 1.9 1.9 0 0 0-.527-.059 1.615 1.615 0 0 0-1.162.4 2.327 2.327 0 0 0-.595.868v6.872h-1.582V84.7h1.445v1.268h.039a3.073 3.073 0 0 1 .254-.536 1.923 1.923 0 0 1 .39-.469 1.726 1.726 0 0 1 .557-.322 2.258 2.258 0 0 1 .771-.117 2.019 2.019 0 0 1 .537.058c.136.039.244.072.322.1zm6.676 7.984v-6.031a2.829 2.829 0 0 0-.4-1.708 1.447 1.447 0 0 0-1.22-.518 1.9 1.9 0 0 0-1.172.352 4.3 4.3 0 0 0-.741.683v7.223h-1.582v-13.8l1.582-.176v5.564h.039a3.546 3.546 0 0 1 .244-.312 2.187 2.187 0 0 1 .458-.391 3.156 3.156 0 0 1 .713-.341 2.984 2.984 0 0 1 .986-.147 2.5 2.5 0 0 1 1.952.8 3.922 3.922 0 0 1 .722 2.655v6.149zm9.957-6.208q0 .606-.04 1.045t-.078.771H216.4a4.166 4.166 0 0 0 .713 2.44 2.214 2.214 0 0 0 1.825.781 2.624 2.624 0 0 0 .742-.1 2.769 2.769 0 0 0 .986-.507c.111-.091.192-.163.244-.215l.586 1.113c-.065.065-.163.159-.293.283a2.674 2.674 0 0 1-.527.371 3.808 3.808 0 0 1-.82.322 4.3 4.3 0 0 1-1.152.136 4.152 4.152 0 0 1-1.591-.292 3.016 3.016 0 0 1-1.21-.908 4.4 4.4 0 0 1-.772-1.562 8.281 8.281 0 0 1-.273-2.274 7.286 7.286 0 0 1 .283-2.158 4.324 4.324 0 0 1 .771-1.493 3.091 3.091 0 0 1 1.133-.869 3.415 3.415 0 0 1 1.386-.283 2.685 2.685 0 0 1 2.108.849 3.714 3.714 0 0 1 .761 2.551zm-2.968-2.108a1.584 1.584 0 0 0-1.347.7 3.837 3.837 0 0 0-.586 2.03h3.417a2.05 2.05 0 0 0 .029-.283c.007-.124.01-.257.01-.4a2.53 2.53 0 0 0-.391-1.513 1.312 1.312 0 0 0-1.13-.533zm6.657 8.316h-1.581V84.7h1.581zm-.781-11.635a1.022 1.022 0 0 1-.781-.312 1.153 1.153 0 0 1-.292-.82 1.124 1.124 0 0 1 .292-.8 1.022 1.022 0 0 1 .781-.312 1 1 0 0 1 .762.312 1.125 1.125 0 0 1 .293.8 1.153 1.153 0 0 1-.293.82 1 1 0 0 1-.76.313zm7.2 3.553h-2.05v5.193a2.541 2.541 0 0 0 .254 1.357.978.978 0 0 0 .859.361 1.686 1.686 0 0 0 .6-.1 2.024 2.024 0 0 0 .371-.175l.215 1.269a2.7 2.7 0 0 1-.469.244 2.486 2.486 0 0 1-1 .165 2.319 2.319 0 0 1-1.816-.673 3.319 3.319 0 0 1-.6-2.235v-5.405h-1.132v-1.054l1.132-.234.176-2.616h1.405V84.7h2.245zM25.131 53.608a9.313 9.313 0 0 0 .071-1.133 7.3 7.3 0 0 0-.025-.737c3.27-.046 6.138-2.4 6.138-5.11a4.9 4.9 0 0 0-1.406-3.04c.113-.025.228-.051.344-.079a5.489 5.489 0 0 1 1.838 3.765c0 3.25-3.249 6.267-6.96 6.334M21.837 42.29a2.229 2.229 0 0 0-.408-.973c.011-.331.147-.648.681-.387-.289.3-.066.819-.066.819s.591-.274.468-.665c.876.21.246 1.387-.675 1.206m-.759 1.669A3.421 3.421 0 0 0 20.4 42.6a1.889 1.889 0 0 0-1.409-.747 3.448 3.448 0 0 0-1.1.271 3 3 0 0 1-.345-.958c0-.238.4-.479 1.172-.479 1.693 0 2.7.764 2.7 2.047a3.076 3.076 0 0 1-.339 1.226m4.347 21.819a1.014 1.014 0 0 1 .407.073 23.192 23.192 0 0 0 2.444 3.934l.017.023.028-.006a18.332 18.332 0 0 1 2.621-.251h.023a.426.426 0 0 1 .3.075.467.467 0 0 1 .095.335 1.867 1.867 0 0 1-.228.842 2.306 2.306 0 0 0-1.8-.545 3.218 3.218 0 0 0-.76.126l-.07.015-.081.021.517.517c.8.8 1.486 1.485 1.486 1.942a1.155 1.155 0 0 1-.515.794 4.378 4.378 0 0 0-1.726-2.588l-.07-.053-.013.3c-.012.2-.03.5-.03.821 0 1.6-.162 1.839-.715 1.839a.992.992 0 0 1-.3-.054 2.674 2.674 0 0 0 .434-1.786v-.743a5.825 5.825 0 0 1 .067-.855l.016-.123-.087-.012a8.984 8.984 0 0 0-1.107-.1 2.349 2.349 0 0 0-1.711.436 1.357 1.357 0 0 1-.519-.787c0-.333.207-.36.479-.36a3.8 3.8 0 0 1 .443.041 11.387 11.387 0 0 0 1.9.127h.065l-.021-.064a12.762 12.762 0 0 0-2.17-3.3c.105-.382.208-.631.577-.631M15.3 69.707l-.021.064h.066a11.382 11.382 0 0 0 1.9-.127 3.8 3.8 0 0 1 .443-.041c.271 0 .479.027.479.36a1.358 1.358 0 0 1-.517.787 2.352 2.352 0 0 0-1.711-.436 8.964 8.964 0 0 0-1.109.1h-.041l-.046.007.015.123a5.646 5.646 0 0 1 .069.855v.331l-.005.412a2.656 2.656 0 0 0 .437 1.786 1.016 1.016 0 0 1-.3.054c-.555 0-.716-.242-.716-1.839 0-.321-.016-.621-.028-.821l-.016-.3-.069.054a4.375 4.375 0 0 0-1.73 2.597 1.152 1.152 0 0 1-.517-.794c0-.457.689-1.145 1.486-1.942l.458-.458.059-.059-.151-.036a3.209 3.209 0 0 0-.761-.126 2.308 2.308 0 0 0-1.8.545 1.867 1.867 0 0 1-.228-.842.467.467 0 0 1 .1-.335.427.427 0 0 1 .3-.075h.023a18.3 18.3 0 0 1 2.622.251l.028.006.016-.023a23.1 23.1 0 0 0 2.446-3.934 1 1 0 0 1 .4-.073c.37 0 .473.249.58.631a12.74 12.74 0 0 0-2.173 3.3m-5.064-22.435a5.489 5.489 0 0 1 1.839-3.765c.115.028.23.054.345.079A4.895 4.895 0 0 0 11 46.628c0 2.736 2.923 5.112 6.234 5.112-.021.234-.033.48-.033.735a10.31 10.31 0 0 0 .062 1.133c-3.743-.023-7.039-3.061-7.039-6.334m25.11 5.763c1.68 2.656 2.994 2.612 4.979 2.612a14.22 14.22 0 0 1-3.247-3.694L34 47.046a7.253 7.253 0 0 0-2.257-3.988 3.926 3.926 0 0 0 .92-.456c-2 0-3.988-1.017-5.08-1.017a1.027 1.027 0 0 0-1.154.974c.045.619.681 1.247 1.858 1.247a6.2 6.2 0 0 0 .981-.1 4.677 4.677 0 0 1 1.15 2.835c0 2.149-2.569 3.824-5.163 3.824-.148 0-.287-.006-.433-.016a5.82 5.82 0 0 1-1.022-2.442c0-1.707 1.114-3.1 1.114-4.793a3.171 3.171 0 0 0-.709-1.974 3 3 0 0 0 .748-.907 1.841 1.841 0 0 1-.725.09c-1.244 0-2.258-.323-3.245-.323-.565 0-.715.174-.715.34a.379.379 0 0 0 .024.152 3.362 3.362 0 0 0-.641-.179 5.082 5.082 0 0 0-.94-.083c-1.2 0-1.628.5-1.628.935A3.66 3.66 0 0 0 17.7 42.7a3.619 3.619 0 0 1 1.286-.4c.638 0 1.2.607 1.5 1.326a5.717 5.717 0 0 1-.943.07 7.2 7.2 0 0 1-2.129-.418c-.015 0-.046.008-.046.034 0 .164.331.6.984.835a12.9 12.9 0 0 0 2.366.483 1.028 1.028 0 0 1-.463.523.26.26 0 0 1-.152 0 10.743 10.743 0 0 1-2.291-.686c-.034-.013-.055.008-.055.045 0 .451 1.168 1.447 2.214 1.829a11.7 11.7 0 0 0-2.48 4c-.146.01-.287.016-.433.016-2.594 0-5.163-1.675-5.163-3.824a4.671 4.671 0 0 1 1.15-2.835 6.174 6.174 0 0 0 .981.1c1.176 0 1.813-.628 1.859-1.247a1.027 1.027 0 0 0-1.155-.974c-1.093 0-3.076 1.017-5.083 1.017a4.02 4.02 0 0 0 .921.456 7.27 7.27 0 0 0-2.256 3.988l-3.064 4.917A14.189 14.189 0 0 1 2 55.649c1.985 0 3.3.044 4.981-2.612l1.573-2.516a6.77 6.77 0 0 0 .428.956l-3.128 5.005a14.153 14.153 0 0 1-3.249 3.7c1.985 0 3.3.046 4.981-2.609l2.692-4.311c.2.215.414.425.637.625l-3.8 6.083a14.028 14.028 0 0 1-3.246 3.691c1.985 0 3.3.048 4.979-2.608l3.7-5.931c.244.155.494.3.753.445L8.782 62.8a14.131 14.131 0 0 1-3.247 3.69c1.985 0 3.3.046 4.981-2.609l4.656-7.453c.275.105.554.207.838.3l-5.261 8.421A14.211 14.211 0 0 1 7.5 68.837c1.983 0 3.3.046 4.979-2.608l5.607-8.974c.058.01.113.018.169.03a4.638 4.638 0 0 1 .259 1.389c0 2.82-1.85 5.311-4.071 7.233a1.751 1.751 0 0 0 .618.084 5.771 5.771 0 0 0 .963-.061 22.95 22.95 0 0 1-2.178 3.462 16.123 16.123 0 0 0-2.478-.233c-.725 0-.807.423-.807.8a1.907 1.907 0 0 0 .666 1.473c.135-.336.4-.786 1.744-.786.026 0 .072 0 .135.009-.391.434-1.616 1.425-1.616 2.222a1.462 1.462 0 0 0 1.346 1.323 1.65 1.65 0 0 1-.04-.445 3.438 3.438 0 0 1 1.057-1.93 2.245 2.245 0 0 0-.007.324c0 1.528.138 2.23 1.108 2.23a1.548 1.548 0 0 0 .917-.34 2.079 2.079 0 0 1-.663-1.891c0-.223 0-.442.006-.742a4.135 4.135 0 0 0-.032-.643 4.508 4.508 0 0 1 .754-.047s1.377-.11 1.71.607c.374-.343.917-.827.917-1.36 0-.353-.168-.752-.878-.752-.269 0-1.114.164-1.821.164a17.825 17.825 0 0 1 1.769-2.556 2.043 2.043 0 0 0 .667 1.032 7.284 7.284 0 0 1 1.3-3.471 17.042 17.042 0 0 1 .246 3.022c0 3.8-.912 6.6-2.85 7.134a1.663 1.663 0 0 0 1.339.834c.709 0 1.094-.8 1.488-1.559.2.558.771 1.926 1.338 1.926s1.136-1.368 1.341-1.926c.392.757.779 1.559 1.488 1.559a1.66 1.66 0 0 0 1.338-.834C23.386 74 22.472 71.2 22.472 67.4a17.042 17.042 0 0 1 .246-3.022 7.242 7.242 0 0 1 1.3 3.471 2.035 2.035 0 0 0 .669-1.032 17.968 17.968 0 0 1 1.768 2.556c-.707 0-1.553-.164-1.821-.164-.708 0-.876.4-.876.752 0 .533.543 1.017.917 1.36.33-.717 1.71-.607 1.71-.607a4.537 4.537 0 0 1 .755.047 3.9 3.9 0 0 0-.033.643v.742a2.079 2.079 0 0 1-.663 1.891 1.542 1.542 0 0 0 .917.34c.969 0 1.109-.7 1.109-2.23a2.561 2.561 0 0 0-.008-.324 3.437 3.437 0 0 1 1.056 1.93 1.542 1.542 0 0 1-.041.445 1.463 1.463 0 0 0 1.345-1.321c0-.8-1.225-1.788-1.619-2.222.064 0 .11-.009.135-.009 1.34 0 1.611.45 1.745.786a1.9 1.9 0 0 0 .666-1.473c0-.379-.082-.8-.807-.8a16.134 16.134 0 0 0-2.477.233 22.95 22.95 0 0 1-2.179-3.462 5.806 5.806 0 0 0 .963.061 1.754 1.754 0 0 0 .619-.084c-2.221-1.922-4.072-4.413-4.072-7.233a4.669 4.669 0 0 1 .259-1.389c.054-.012.113-.02.169-.03l5.608 8.974c1.678 2.654 2.995 2.608 4.979 2.608a14.192 14.192 0 0 1-3.245-3.691L26.3 56.725c.285-.09.566-.192.841-.3l4.659 7.456c1.679 2.655 2.995 2.609 4.98 2.609a14.1 14.1 0 0 1-3.247-3.69l-4.522-7.236c.256-.141.507-.29.75-.445l3.706 5.931c1.68 2.656 2.994 2.608 4.979 2.608a14.073 14.073 0 0 1-3.246-3.693l-3.8-6.083c.223-.2.436-.41.635-.625l2.7 4.311c1.678 2.655 2.994 2.609 4.979 2.609a14.164 14.164 0 0 1-3.248-3.695l-3.127-5.005a7.259 7.259 0 0 0 .428-.956zm20.684 21.342h-5.742V41.568h5.742z"></path><path d="M56.018 107.189h-5.742v-32.81h5.742z" fill="red"></path><path d="M56.018 140h-5.742v-32.811h5.742z" fill="#fc0"></path></svg>